<?xml version="1.0" encoding="UTF-8"?>
<!DOCTYPE svg PUBLIC "-//W3C//DTD SVG 1.1//EN" "http://www.w3.org/Graphics/SVG/1.1/DTD/svg11.dtd">
<!-- Creator: CorelDRAW 2020 (64-Bit) -->
<svg xmlns="http://www.w3.org/2000/svg" xml:space="preserve" width="0.709177in" height="0.709173in" version="1.1" style="shape-rendering:geometricPrecision; text-rendering:geometricPrecision; image-rendering:optimizeQuality; fill-rule:evenodd; clip-rule:evenodd"
viewBox="0 0 77.06 77.06"
 xmlns:xlink="http://www.w3.org/1999/xlink"
 xmlns:xodm="http://www.corel.com/coreldraw/odm/2003">
 <defs>
  <style type="text/css">
   <![CDATA[
    .fil2 {fill:#336699}
    .fil0 {fill:white}
    .fil1 {fill:#336699;fill-rule:nonzero}
   ]]>
  </style>
 </defs>
 <g id="Layer_x0020_1">
  <metadata id="CorelCorpID_0Corel-Layer"/>
  <g id="_2030118052592">
   <circle class="fil0" cx="38.53" cy="38.53" r="37.09"/>
   <path class="fil1" d="M38.53 0c10.64,0 20.27,4.31 27.24,11.29 6.97,6.97 11.29,16.61 11.29,27.24 0,10.64 -4.31,20.27 -11.29,27.24 -6.97,6.97 -16.61,11.29 -27.24,11.29 -10.64,0 -20.27,-4.31 -27.24,-11.28 -6.97,-6.97 -11.28,-16.61 -11.28,-27.24 0,-10.64 4.31,-20.27 11.28,-27.24 6.97,-6.97 16.61,-11.28 27.24,-11.28zm25.21 13.32c-6.45,-6.45 -15.36,-10.44 -25.21,-10.44 -9.84,0 -18.76,3.99 -25.21,10.44 -6.45,6.45 -10.44,15.36 -10.44,25.21 0,9.84 3.99,18.76 10.44,25.21 6.45,6.45 15.36,10.44 25.21,10.44 9.84,0 18.76,-3.99 25.21,-10.44 6.45,-6.45 10.44,-15.36 10.44,-25.21 0,-9.84 -3.99,-18.76 -10.44,-25.21z"/>
   <g>
    <path class="fil2" d="M40.32 39.98c0.5,0.49 0.11,0.18 0.9,0.72 1.31,0.88 -1.27,-0.69 0.61,0.37 0.47,0.26 1.06,0.49 1.56,0.71l8.55 3.59c0.63,-0 10.15,-3.85 11.67,-5.41 -2.71,-0.67 -9.87,-4.75 -11.66,-4.74 -1.6,0.01 -8.98,4.14 -11.63,4.76z"/>
    <polygon class="fil2" points="63.86,53.84 63.84,42.51 52.86,47.38 53.02,58.69 "/>
    <polygon class="fil2" points="40.1,53.78 51.03,58.64 51.01,47.42 40.16,42.57 40.07,46.92 40.07,51.04 "/>
   </g>
   <g>
    <path class="fil2" d="M26.75 14.03c0.5,0.49 0.11,0.18 0.9,0.72 1.31,0.88 -1.27,-0.69 0.61,0.37 0.47,0.26 1.06,0.49 1.56,0.71l8.55 3.59c0.63,-0 10.15,-3.85 11.67,-5.41 -2.71,-0.67 -9.87,-4.75 -11.66,-4.74 -1.6,0.01 -8.98,4.14 -11.63,4.76z"/>
    <polygon class="fil2" points="50.29,27.89 50.26,16.56 39.29,21.43 39.44,32.74 "/>
    <polygon class="fil2" points="26.52,27.83 37.45,32.7 37.43,21.47 26.58,16.62 26.49,20.97 26.5,25.09 "/>
   </g>
   <g>
    <path class="fil2" d="M12.95 39.98c0.5,0.49 0.11,0.18 0.9,0.72 1.31,0.88 -1.27,-0.69 0.61,0.37 0.47,0.26 1.06,0.49 1.56,0.71l8.55 3.59c0.63,-0 10.15,-3.85 11.67,-5.41 -2.71,-0.67 -9.87,-4.75 -11.66,-4.74 -1.6,0.01 -8.98,4.14 -11.63,4.76z"/>
    <polygon class="fil2" points="36.49,53.84 36.46,42.51 25.49,47.38 25.65,58.69 "/>
    <polygon class="fil2" points="12.72,53.78 23.65,58.64 23.63,47.42 12.78,42.57 12.7,46.92 12.7,51.04 "/>
   </g>
  </g>
 </g>
</svg>
