<?xml version="1.0" encoding="UTF-8"?>
<!DOCTYPE svg PUBLIC "-//W3C//DTD SVG 1.1//EN" "http://www.w3.org/Graphics/SVG/1.1/DTD/svg11.dtd">
<!-- Creator: CorelDRAW 2021 (64-Bit) -->
<svg xmlns="http://www.w3.org/2000/svg" xml:space="preserve" width="1.47558in" height="1.47558in" version="1.1" style="shape-rendering:geometricPrecision; text-rendering:geometricPrecision; image-rendering:optimizeQuality; fill-rule:evenodd; clip-rule:evenodd"
viewBox="0 0 549.04 549.04"
 xmlns:xlink="http://www.w3.org/1999/xlink"
 xmlns:xodm="http://www.corel.com/coreldraw/odm/2003">
 <defs>
  <style type="text/css">
   <![CDATA[
    .str0 {stroke:white;stroke-width:6.2;stroke-miterlimit:2.61313}
    .fil5 {fill:#009933}
    .fil4 {fill:#336699}
    .fil3 {fill:#FF6600}
    .fil1 {fill:white}
    .fil0 {fill:white}
    .fil2 {fill:gray;fill-rule:nonzero}
   ]]>
  </style>
 </defs>
 <g id="Layer_x0020_1">
  <metadata id="CorelCorpID_0Corel-Layer"/>
  <rect class="fil0" x="0" y="-0" width="549.04" height="549.04"/>
  <g id="_2340153671328">
   <rect class="fil1" x="59.17" y="123.53" width="265.58" height="338.97"/>
   <path class="fil2" d="M59.18 120l269.12 0 0 346.04 -272.65 0 0 -346.04 3.54 0zm262.04 7.07l-258.51 0 0 331.9 258.51 0 0 -331.9z"/>
   <rect class="fil3" x="104.56" y="165.07" width="176.85" height="26.05"/>
   <rect class="fil3" x="104.79" y="220.61" width="176.85" height="26.05"/>
   <rect class="fil4" x="106.71" y="275.63" width="176.85" height="26.05"/>
   <rect class="fil4" x="106.71" y="325.89" width="176.85" height="26.05"/>
   <rect class="fil4" x="105.84" y="374.28" width="176.85" height="26.05"/>
   <rect class="fil1" x="214.56" y="100.04" width="265.58" height="338.97"/>
   <path class="fil2" d="M214.56 96.51l269.12 0 0 346.04 -272.65 0 0 -346.04 3.54 0zm262.04 7.07l-258.51 0 0 331.9 258.51 0 0 -331.9z"/>
   <rect class="fil3" x="259.95" y="141.58" width="176.85" height="26.05"/>
   <rect class="fil3" x="260.18" y="197.12" width="176.85" height="26.05"/>
   <rect class="fil4" x="262.1" y="252.15" width="176.85" height="26.05"/>
   <rect class="fil4" x="261.61" y="302.4" width="76.38" height="26.05"/>
   <rect class="fil4" x="261.23" y="350.79" width="76.38" height="26.05"/>
   <path class="fil5 str0" d="M395.62 382.62c-4.28,0 -23.51,-21.11 -24.67,-22.85 0.7,-2.62 6.08,-9.14 10.05,-9.14 2.95,0 11.5,10.71 14.62,12.79 3,-4.48 24.18,-27.22 28.33,-28.33 15.22,10.19 7.38,12.33 -9.38,29 -3.14,3.13 -15.35,18.52 -18.95,18.52zm-1.08 -84.08l11.43 0c14.27,0.62 28.04,3.55 37.48,8.83 2.18,1.22 7.92,4.21 7.92,6.7 0,31.12 3.66,51.53 -17.08,76.13 -7.09,8.42 -27.61,24.89 -34.1,24.89 -3.39,-0 -15.66,-8.36 -18.94,-10.8 -11.71,-8.71 -21.55,-19.22 -27.15,-33.16 -7.12,-17.69 -5.08,-37.9 -5.08,-57.06 0,-2.53 6.26,-5.82 8.51,-7.03 9.43,-5.06 22.98,-7.9 37.02,-8.51z"/>
  </g>
 </g>
</svg>
