<?xml version="1.0" ?><!DOCTYPE svg  PUBLIC '-//W3C//DTD SVG 1.1//EN'  'http://www.w3.org/Graphics/SVG/1.1/DTD/svg11.dtd'><svg enable-background="new 0 0 512 512" height="512px" version="1.1" viewBox="0 0 512 512" width="512px" xml:space="preserve" xmlns="http://www.w3.org/2000/svg" xmlns:xlink="http://www.w3.org/1999/xlink"><g enable-background="new    " id="Shape_1_1_"><g id="Shape_1"><g><ellipse cx="254.456" cy="255.754" fill="#8A8DBA" rx="253.468" ry="254.246"/></g></g></g><g id="_xF388_"><g><path d="M331.761,248.099c4.638,2.42,7.261,6.353,7.866,11.799c0.604,5.445-1.012,9.983-4.841,13.614    L216.495,385.45c-2.827,2.821-6.354,4.235-10.589,4.235c-5.649,0-9.983-2.421-13.009-7.261c-3.025-4.841-3.63-9.785-1.815-14.824    l34.187-81.685l-66.558-38.725c-4.439-2.42-6.958-6.249-7.563-11.496c-0.605-5.243,0.908-9.781,4.538-13.614l118.292-111.938    c2.217-2.822,5.748-4.236,10.589-4.236c4.235,0,7.965,1.617,11.193,4.841c3.224,3.229,4.736,6.859,4.538,10.891    c0,2.624-0.506,4.945-1.513,6.958l-33.581,80.777L331.761,248.099z" fill="#FFFFFF"/></g></g></svg>