<?xml version="1.0" ?><!DOCTYPE svg  PUBLIC '-//W3C//DTD SVG 1.1//EN'  'http://www.w3.org/Graphics/SVG/1.1/DTD/svg11.dtd'><svg height="512px" style="enable-background:new 0 0 512 512;" version="1.1" viewBox="0 0 512 512" width="512px" xml:space="preserve" xmlns="http://www.w3.org/2000/svg" xmlns:xlink="http://www.w3.org/1999/xlink"><g id="data_database_server_storage_tick_ok_online"><g><path d="M512,372.71c0,74.506-60.398,134.905-134.904,134.904c-0.004,0,0.002,0-0.002,0    c-74.5,0-134.871-60.723-134.869-135.224C117.719,378.771,0,363.444,0,327.525v-67.092c0-4.598,1.748-8.858,5.201-12.75    C1.719,243.782,0,239.533,0,234.885v-67.091c0-4.534,1.705-8.739,5.062-12.586C1.672,151.348,0,147.148,0,142.563V49.994    C0,28.061,49.893,4.386,193.698,4.386c142.829,0,193.698,24.327,193.698,45.608v92.569c0,4.587-1.673,8.788-5.063,12.646    c3.357,3.847,5.063,8.051,5.063,12.584v70.402C457.086,243.456,512,301.674,512,372.71z" style="fill:#37484F;"/><path d="M20.237,50.286C23.559,53.65,59.35,76.62,193.698,76.62c132.72,0,170.14-22.97,173.461-26.334    c-3.323-3.366-42.046-26.334-173.461-26.334C58.697,23.951,23.561,46.92,20.237,50.286z" style="fill:#E0E0E0;"/><path d="M19.565,142.048c1.815,2.853,31.958,27.139,174.133,27.139    c135.329,0,172.317-24.287,174.133-27.139V72.791c-10.029,4.807-56.739,23.395-174.133,23.395    c-116.739,0-164.104-18.587-174.133-23.395V142.048z" style="fill:#E0E0E0;"/><path d="M19.565,234.371c2.282,3.203,38.642,27.14,174.133,27.14c45.163,0,89.632-3.379,123.157-9.529    c15.524-7.761,32.752-12.616,50.976-13.852v-69.789c-0.232-0.324-0.827-1.02-2.124-1.999    c-9.848,4.392-60.176,22.411-172.009,22.411c-113.282,0-162.423-18.137-172.009-22.411c-1.297,0.979-1.892,1.675-2.124,1.999    V234.371z" style="fill:#E0E0E0;"/><path d="M243.609,353.151c4.343-29.9,18.492-56.617,39.08-76.793    c-26.871,4.422-181.928,13.879-260.732-17.577c-1.492,1.087-2.143,1.854-2.392,2.201v66.029    C56.252,356.434,209.676,355.455,243.609,353.151z" style="fill:#E0E0E0;"/><path d="M492.56,372.71c0-63.765-51.698-115.464-115.461-115.464c-0.004,0-0.002,0-0.002,0    c-63.771,0-115.464,51.695-115.464,115.465c-0.001,63.765,51.697,115.463,115.461,115.463c0.004,0-0.002,0,0.002,0    C440.865,488.175,492.56,436.479,492.56,372.71z" style="fill:#45AA51;"/><polygon points="359.102,422.837 306.646,370.382 329.176,347.854 359.102,377.783 418.96,317.926     441.488,340.452   " style="fill:#37484F;"/><g><path d="M39.565,122.048V79.971c-10.607-3.051-16.989-5.737-20-7.18v69.258     c1.815,2.853,31.957,27.139,174.133,27.139c135.328,0,172.317-24.287,174.133-27.139v-10.232     c-23.103,7.826-69.288,17.372-154.133,17.372C71.522,149.188,41.381,124.901,39.565,122.048z" style="fill:#BDBDBD;"/><path d="M193.698,76.62c132.72,0,170.14-22.97,173.461-26.334c-0.961-0.973-4.89-3.586-13.153-6.808     C328.152,50.086,284.48,56.62,213.698,56.62c-95.679,0-141.362-11.648-160.938-19.57c-22.448,5.796-30.969,11.661-32.523,13.236     C23.559,53.65,59.349,76.62,193.698,76.62z" style="fill:#BDBDBD;"/><path d="M213.698,241.511c-135.491,0-171.851-23.937-174.133-27.14v-41.886     c-9.413-2.665-15.194-4.947-17.876-6.143c-1.298,0.979-1.892,1.675-2.124,1.999v66.03c2.282,3.203,38.642,27.14,174.133,27.14     c45.163,0,89.632-3.379,123.157-9.529c15.524-7.761,32.751-12.616,50.976-13.852V221     C356.954,223.406,324.888,241.511,213.698,241.511z" style="fill:#BDBDBD;"/><path d="M39.565,307.012v-42.218c-6.192-1.817-12.093-3.812-17.608-6.013     c-1.492,1.087-2.144,1.854-2.392,2.201v66.029c36.686,29.422,190.11,28.443,224.044,26.14c0.959-6.605,2.398-13.055,4.279-19.313     C196.53,335.288,72.112,333.114,39.565,307.012z" style="fill:#BDBDBD;"/></g><path d="M397.094,468.174c-63.764,0-115.462-51.698-115.461-115.463c0-26.788,9.125-51.443,24.432-71.033    c-27.044,21.133-44.432,54.051-44.432,91.033c-0.001,63.765,51.697,115.463,115.461,115.463c0.004,0-0.002,0,0.002,0    c36.981,0,69.899-17.387,91.031-44.432c-19.589,15.308-44.244,24.432-71.031,24.432    C397.092,468.174,397.098,468.174,397.094,468.174z" style="fill:#44A147;"/></g></g><g id="Capa_1"/></svg>