<?xml version="1.0" ?><!DOCTYPE svg  PUBLIC '-//W3C//DTD SVG 1.1//EN'  'http://www.w3.org/Graphics/SVG/1.1/DTD/svg11.dtd'><svg enable-background="new 0 0 256 256" height="256px" id="Layer_1" version="1.1" viewBox="0 0 256 256" width="256px" xml:space="preserve" xmlns="http://www.w3.org/2000/svg" xmlns:xlink="http://www.w3.org/1999/xlink"><g><g><g><g><g><rect fill="#4A555F" height="3.1" width="105.6" x="75.2" y="13.4"/></g><circle cx="86.4" cy="8.5" fill="#4A555F" r="2.3"/><circle cx="95.3" cy="8.5" fill="#4A555F" r="2.3"/><circle cx="104.1" cy="8.5" fill="#4A555F" r="2.3"/><g><path d="M173.1,100.7H82.9c-5.1,0-9.2-4.1-9.2-9.2V9.2c0-1.5,0.4-3.1,1.1-4.4c0.4-0.8,1-1.5,1.6-2.1       c0.4-0.4,0.9-0.8,1.4-1.1c0.5-0.3,1-0.6,1.6-0.9C80.4,0.2,81.6,0,82.9,0h90.3c1.2,0,2.4,0.2,3.6,0.7c0.5,0.2,1.1,0.5,1.6,0.8       c0.5,0.4,1,0.7,1.4,1.1c0.6,0.6,1.2,1.3,1.6,2.1c0.7,1.3,1.1,2.9,1.1,4.4v82.3C182.4,96.6,178.2,100.7,173.1,100.7z M82.9,3.1       c-0.8,0-1.6,0.2-2.4,0.5c-0.4,0.2-0.7,0.3-1,0.6c-0.3,0.2-0.6,0.5-0.9,0.7c-0.4,0.4-0.8,0.9-1.1,1.4c-0.5,0.9-0.7,1.9-0.7,2.9       v82.3c0,3.4,2.7,6.1,6.1,6.1h90.3c3.4,0,6.1-2.7,6.1-6.1V9.2c0-1-0.2-2-0.7-2.9c-0.3-0.5-0.6-1-1.1-1.4       c-0.3-0.3-0.6-0.5-0.9-0.8c-0.3-0.2-0.7-0.4-1-0.5c-0.8-0.3-1.6-0.5-2.4-0.5H82.9z" fill="#4A555F"/></g></g></g><rect fill="#FFD552" height="38.9" width="85.9" x="84.7" y="27.7"/></g><g><g><g><g><g><rect fill="#4A555F" height="3.1" width="105.6" x="6.3" y="168.7"/></g><circle cx="17.5" cy="163.8" fill="#4A555F" r="2.3"/><circle cx="26.4" cy="163.8" fill="#4A555F" r="2.3"/><circle cx="35.3" cy="163.8" fill="#4A555F" r="2.3"/><g><path d="M104.3,256H14c-5.1,0-9.2-4.1-9.2-9.2v-82.3c0-1.5,0.4-3.1,1.1-4.4c0.4-0.8,1-1.5,1.6-2.1        c0.4-0.4,0.8-0.8,1.4-1.1c0.5-0.3,1-0.6,1.6-0.9c1.1-0.5,2.4-0.7,3.6-0.7l90.3,0c1.2,0,2.4,0.2,3.6,0.7        c0.5,0.2,1.1,0.5,1.6,0.8c0.5,0.4,1,0.7,1.4,1.1c0.6,0.6,1.2,1.3,1.6,2.1c0.7,1.3,1.1,2.9,1.1,4.4v82.3        C113.5,251.9,109.3,256,104.3,256z M14,158.4c-0.8,0-1.6,0.2-2.4,0.5c-0.4,0.2-0.7,0.3-1,0.6c-0.3,0.2-0.6,0.5-0.9,0.7        c-0.4,0.4-0.8,0.9-1.1,1.4c-0.5,0.9-0.7,1.9-0.7,2.9v82.3c0,3.4,2.7,6.1,6.1,6.1h90.3c3.4,0,6.1-2.7,6.1-6.1v-82.3        c0-1-0.2-2-0.7-2.9c-0.3-0.5-0.6-1-1.1-1.4c-0.3-0.3-0.6-0.5-0.9-0.8c-0.3-0.2-0.7-0.4-1-0.5c-0.8-0.3-1.6-0.5-2.4-0.5        L14,158.4z" fill="#4A555F"/></g></g></g><rect fill="#FFD552" height="25.7" width="48.8" x="15.9" y="183"/></g><g><g><g><g><rect fill="#4A555F" height="3.1" width="105.6" x="144.1" y="168.7"/></g><circle cx="155.3" cy="163.8" fill="#4A555F" r="2.3"/><circle cx="164.2" cy="163.8" fill="#4A555F" r="2.3"/><circle cx="173" cy="163.8" fill="#4A555F" r="2.3"/><g><path d="M242,256h-90.3c-5.1,0-9.2-4.1-9.2-9.2v-82.3c0-1.5,0.4-3.1,1.1-4.4c0.4-0.8,1-1.5,1.6-2.1        c0.4-0.4,0.8-0.8,1.4-1.1c0.5-0.3,1-0.6,1.6-0.9c1.1-0.5,2.4-0.7,3.6-0.7l90.3,0c1.2,0,2.4,0.2,3.6,0.7        c0.5,0.2,1.1,0.5,1.6,0.8c0.5,0.4,1,0.7,1.4,1.1c0.6,0.6,1.2,1.3,1.6,2.1c0.7,1.3,1.1,2.9,1.1,4.4v82.3        C251.2,251.9,247.1,256,242,256z M151.7,158.4c-0.8,0-1.6,0.2-2.4,0.5c-0.4,0.2-0.7,0.3-1,0.6c-0.3,0.2-0.6,0.5-0.9,0.7        c-0.4,0.4-0.8,0.9-1.1,1.4c-0.5,0.9-0.7,1.9-0.7,2.9v82.3c0,3.4,2.7,6.1,6.1,6.1H242c3.4,0,6.1-2.7,6.1-6.1v-82.3        c0-1-0.2-2-0.7-2.9c-0.3-0.5-0.6-1-1.1-1.4c-0.3-0.3-0.6-0.5-0.9-0.8c-0.3-0.2-0.7-0.4-1-0.5c-0.8-0.3-1.6-0.5-2.4-0.5        L151.7,158.4z" fill="#4A555F"/></g></g></g><rect fill="#F68F6F" height="57.8" width="46.7" x="153.6" y="183.2"/></g></g><g><path d="M198.9,129.8h-3.1v-3.1h3.1V129.8z M192.7,129.8h-3.1v-3.1h3.1V129.8z M186.5,129.8h-3.1v-3.1h3.1V129.8z     M180.3,129.8h-3.1v-3.1h3.1V129.8z M174.1,129.8H171v-3.1h3.1V129.8z M167.9,129.8h-3.1v-3.1h3.1V129.8z M161.7,129.8h-3.1v-3.1    h3.1V129.8z M155.4,129.8h-3.1v-3.1h3.1V129.8z M149.2,129.8h-3.1v-3.1h3.1V129.8z M143,129.8h-3.1v-3.1h3.1V129.8z M136.8,129.8    h-3.1v-3.1h3.1V129.8z M130.6,129.8h-3.1v-3.1h3.1V129.8z M124.4,129.8h-3.1v-3.1h3.1V129.8z M118.2,129.8H115v-3.1h3.1V129.8z     M111.9,129.8h-3.1v-3.1h3.1V129.8z M105.7,129.8h-3.1v-3.1h3.1V129.8z M99.5,129.8h-3.1v-3.1h3.1V129.8z M93.3,129.8h-3.1v-3.1    h3.1V129.8z M87.1,129.8H84v-3.1h3.1V129.8z M80.9,129.8h-3.1v-3.1h3.1V129.8z M74.7,129.8h-3.1v-3.1h3.1V129.8z M68.4,129.8h-3.1    v-3.1h3.1V129.8z M62.2,129.8h-3.1v-3.1h3.1V129.8z" fill="#4A555F"/></g><g><path d="M199,148.7h-3.1v-3.1h3.1V148.7z M199,142.5h-3.1v-3.1h3.1V142.5z M199,136.3h-3.1v-3.1h3.1V136.3z" fill="#4A555F"/></g><g><path d="M130.7,122.7h-3.1v-3.1h3.1V122.7z M130.7,116.5h-3.1v-3.1h3.1V116.5z M130.7,110.3h-3.1v-3.1h3.1V110.3z" fill="#4A555F"/></g><g><path d="M62.3,148.5h-3.1v-3.1h3.1V148.5z M62.3,142.3h-3.1v-3.1h3.1V142.3z M62.3,136.1h-3.1V133h3.1V136.1z" fill="#4A555F"/></g><g><rect fill="#4A555F" height="3.1" width="85.9" x="84.7" y="71.9"/></g><g><rect fill="#4A555F" height="3.1" width="85.9" x="84.7" y="81.8"/></g><g><rect fill="#4A555F" height="3.1" width="29.5" x="71.5" y="183.2"/></g><g><rect fill="#4A555F" height="3.1" width="29.5" x="71.5" y="194.2"/></g><g><rect fill="#4A555F" height="3.1" width="29.5" x="71.5" y="205.1"/></g><rect fill="#71CDE1" height="21.9" width="85.2" x="15.9" y="217.3"/><g><rect fill="#4A555F" height="3.1" width="31.2" x="207.8" y="183.2"/></g><g><rect fill="#4A555F" height="3.1" width="31.2" x="207.8" y="194.2"/></g><g><rect fill="#4A555F" height="3.1" width="31.2" x="207.8" y="205.1"/></g><g><rect fill="#4A555F" height="3.1" width="31.2" x="207.8" y="216"/></g><g><rect fill="#4A555F" height="3.1" width="31.2" x="207.8" y="227"/></g><g><rect fill="#4A555F" height="3.1" width="31.2" x="207.8" y="237.9"/></g></g></svg>