<?xml version="1.0" ?><!DOCTYPE svg  PUBLIC '-//W3C//DTD SVG 1.1//EN'  'http://www.w3.org/Graphics/SVG/1.1/DTD/svg11.dtd'><svg id="Layer_1" style="enable-background:new -179 381 200 200;" version="1.1" viewBox="-179 381 200 200" xml:space="preserve" xmlns="http://www.w3.org/2000/svg" xmlns:xlink="http://www.w3.org/1999/xlink"><g id="_x31_._components"/><g id="_x32_._settings"/><g id="_x33_._logic"/><g id="components"><g id="gender"/><g id="currency"/><g id="dropdown"/><g id="horizontal_rule"/><g id="file_upload"/><g id="slider"/><g id="radiobutton"/><g id="email"/><g id="numeric"/><g id="text"><g><g><path d="M-133.1,488.5l-3.9,11.7h-5l12.6-37.1h5.8l12.7,37.1h-5.1l-4-11.7H-133.1z M-120.9,484.8l-3.6-10.7      c-0.8-2.4-1.4-4.6-1.9-6.8h-0.1c-0.6,2.2-1.2,4.5-1.9,6.7l-3.6,10.7L-120.9,484.8L-120.9,484.8z"/><path d="M-110.2,500.7h-6.2l-4-11.7h-12.4l-3.9,11.7h-6.1l12.9-38.1h6.5L-110.2,500.7z M-115.6,499.7h4l-12.4-36.1h-5.1      l-12.3,36.1h3.9l3.9-11.7h13.8L-115.6,499.7z M-120.4,487.8l-0.9-2.6h-11.4l3.8-11.4c0.6-1.8,1.1-3.7,1.6-5.5l0.4-1.5h0.9      l0.1,0.4c0.5,2.3,1.1,4.5,1.9,6.8l3.5,10.3h0.2V487.8z M-131.3,484.2h9.7l-3.3-9.9c-0.6-1.7-1.1-3.4-1.5-5.1      c-0.5,1.7-0.9,3.4-1.4,5L-131.3,484.2z"/></g></g><g><polygon points="-158.7,450.4 -54.2,450.4 -54.2,439.6 -170.1,439.6 -170.1,523.2 -54.2,523.2 -54.2,511.8 -158.7,511.8    "/><polygon points="-25.4,439.6 -25.4,452.3 1.2,452.3 1.2,511.8 -25.4,511.8 -25.4,523.2 12.3,523.2 12.3,439.6    "/></g><path d="M-20.1,542.7h-11.3V420.5h11.3c4.1,0,7.5-3.4,7.5-7.5s-3.4-7.5-7.5-7.5h-38c-4.1,0-7.5,3.4-7.5,7.5s3.4,7.5,7.5,7.5h12    v122.3h-12c-4.1,0-7.5,3.4-7.5,7.5c0,4.1,3.4,7.5,7.5,7.5h38c4.1,0,7.5-3.4,7.5-7.5C-12.6,546.1-16,542.7-20.1,542.7z"/></g><g id="text_copy"/><g id="textarea"/><g id="checkbox"/><g id="text_1_"/><g id="datepicker"/></g><g id="arrow"/><g id="guides"/><g id="about"/></svg>