<?xml version="1.0" encoding="UTF-8"?>
<!DOCTYPE svg PUBLIC "-//W3C//DTD SVG 1.1//EN" "http://www.w3.org/Graphics/SVG/1.1/DTD/svg11.dtd">
<!-- Creator: CorelDRAW 2021 (64-Bit) -->
<svg xmlns="http://www.w3.org/2000/svg" xml:space="preserve" width="1.47558in" height="1.47558in" version="1.1" style="shape-rendering:geometricPrecision; text-rendering:geometricPrecision; image-rendering:optimizeQuality; fill-rule:evenodd; clip-rule:evenodd"
viewBox="0 0 546.1 546.1"
 xmlns:xlink="http://www.w3.org/1999/xlink"
 xmlns:xodm="http://www.corel.com/coreldraw/odm/2003">
 <defs>
  <style type="text/css">
   <![CDATA[
    .str0 {stroke:black;stroke-width:6.17;stroke-miterlimit:2.61313}
    .fil1 {fill:black}
    .fil4 {fill:#336699}
    .fil5 {fill:#336699}
    .fil3 {fill:#FF6600}
    .fil2 {fill:white}
    .fil0 {fill:white}
   ]]>
  </style>
 </defs>
 <g id="Layer_x0020_1">
  <metadata id="CorelCorpID_0Corel-Layer"/>
  <rect class="fil0" x="-0" y="-0" width="546.1" height="546.1"/>
  <path class="fil1" d="M232.57 124.83c-1.34,-1.44 -73.47,-36.57 -75.13,-36.62 0.33,3.06 1.51,9.26 1.76,10.65l1.97 10.88c0.5,2.5 0.89,4.74 1.41,7.34 0.33,1.67 1.19,5.69 1.13,7.29l-8.95 4.1c-22.54,10.65 -44.46,27.76 -59.64,47.56 -15.86,20.69 -25.3,41.54 -30.52,66.24l10.46 3.93c4.9,-13.59 6.9,-23.99 16.99,-35.97 18.5,-21.96 42.02,-41.78 69.44,-47.96 3.88,-0.87 7.55,-2.4 9.21,0.3 0.57,0.93 3.3,16.46 3.69,18.71 0.96,5.63 1.85,18.35 3.24,18.29 3.3,-3.12 55.12,-70.59 54.94,-74.75z"/>
  <g id="_2340190611520">
   <rect class="fil2 str0" x="64.97" y="272.25" width="167.08" height="213.24"/>
   <rect class="fil3" x="93.52" y="298.38" width="111.26" height="16.39"/>
   <rect class="fil3" x="93.67" y="333.32" width="111.26" height="16.39"/>
   <rect class="fil4" x="94.88" y="367.94" width="111.26" height="16.39"/>
   <rect class="fil4" x="94.88" y="399.55" width="111.26" height="16.39"/>
   <rect class="fil4" x="94.33" y="429.99" width="111.26" height="16.39"/>
  </g>
  <g id="_2340190611760">
   <rect class="fil2 str0" x="162.72" y="257.47" width="167.08" height="213.24"/>
   <rect class="fil3" x="191.28" y="283.61" width="111.26" height="16.39"/>
   <rect class="fil3" x="191.42" y="318.54" width="111.26" height="16.39"/>
   <rect class="fil4" x="192.63" y="353.16" width="111.26" height="16.39"/>
   <rect class="fil4" x="192.63" y="384.78" width="111.26" height="16.39"/>
   <rect class="fil4" x="192.08" y="415.22" width="111.26" height="16.39"/>
  </g>
  <g id="_2340190611040">
   <path class="fil5" d="M452.68 193.66l-151.65 0c-6.74,0 -11.59,-1.35 -16.54,-5.05l-3.88 -3.75c-2.21,-2.53 -3.83,-6 -4.71,-9.25 -1.37,-5.03 -0.87,-10.91 1.08,-15.74 1.09,-2.7 2.94,-5.58 4.85,-7.48 1.47,-1.46 3.38,-3.02 5.24,-4.02 5.51,-2.96 11.63,-3.99 18.14,-2.88 1.34,0.23 6.93,1.42 7.84,1.42 0.23,-2.75 0.63,-5.62 0.82,-8.44 0.65,-9.75 5.36,-18.36 12.55,-24.47 5.03,-4.28 13.11,-7.68 20.08,-7.68 7.4,0 6.85,0.04 13.94,2.13 0.78,0.23 2.25,0.72 3.1,0.79 0.36,-1.54 3.38,-7.72 4.28,-9.36 2.24,-4.12 4.87,-7.18 8.1,-10.41 7.27,-7.27 18.85,-12.38 29.35,-12.38 4.46,0 6.9,0.14 11.14,1.2 2.96,0.74 5.17,1.55 7.74,2.65 3.52,1.51 6.68,3.5 9.58,5.84 0.98,0.79 1.87,1.56 2.75,2.45 2.39,2.39 2.85,2.87 4.85,5.38 4.44,5.55 8.58,15.41 8.58,22.59l0 8.44 7.87 0.9c2.85,0.39 4.94,0.77 7.34,1.59 3.28,1.12 8.67,3.94 11.22,6.48 0.77,0.77 1.54,1.25 2.26,2.12l1.49 1.76c1.33,1.65 2.14,2.61 3.21,4.58 0.31,0.57 0.52,0.87 0.82,1.46 1.93,3.86 3.79,9.3 3.79,13.91 0.01,6.77 0.29,8.7 -2.3,15.08 -3.14,7.75 -10.24,14.25 -17.93,17.46 -4.59,1.92 -8.59,2.69 -15.01,2.69zm-197.11 -22.54l0 -3.66c0.12,-2.94 0.55,-5.9 1.3,-8.87 1.31,-5.22 3.41,-9.99 6.43,-14.35 0.73,-1.05 1.45,-1.95 2.25,-2.95l6.49 -6.5c5.53,-4.32 12.66,-7.8 19.77,-8.81l4.52 -0.51c0.22,-0.93 0.41,-1.48 0.74,-2.34 1.91,-4.93 3.89,-9.41 7.1,-13.69l3.39 -4.24c1.09,-1.35 2.44,-2.57 3.67,-3.8l1.54 -1.38c0.58,-0.51 0.95,-0.88 1.56,-1.36 0.59,-0.47 1.01,-0.85 1.62,-1.3 6.45,-4.82 12.49,-7.53 20.45,-9.43 5.45,-1.3 10.54,-1.27 16.43,-1.27 1.37,-2.6 4.23,-5.69 6.22,-8.07l3.32 -3.17c1.87,-1.73 4.92,-4.47 7.08,-5.9 0.6,-0.4 0.95,-0.69 1.53,-1.07 17.22,-11.53 38.81,-14.52 59.06,-6.39 8.58,3.44 13.77,7.2 20.4,13.04 1.3,1.15 2.51,2.67 3.49,3.65 1.73,1.73 5.62,7.19 6.73,9.02 1.84,3.06 3.3,5.87 4.77,9.35 0.38,0.91 0.61,1.67 0.97,2.6 0.61,1.58 2.15,6.89 2.18,8.21 0.68,0.06 1.85,0.44 2.46,0.63 7.44,2.28 15.85,7.17 21.29,12.64 1.05,1.05 1.97,2.09 2.93,3.24 0.99,1.18 1.81,2.21 2.73,3.44 0.87,1.15 1.73,2.4 2.51,3.66 1.76,2.88 2.89,5.12 4.13,8.21 0.6,1.5 1.1,2.98 1.6,4.56 1.96,6.14 2.69,14.18 1.82,21.75 -0.64,5.5 -2.01,9.78 -3.98,14.53 -1.02,2.45 -2.95,5.89 -4.35,7.99 -3.04,4.56 -4.75,6.33 -8.45,10.06 -1.63,1.65 -5.01,4.21 -6.88,5.46l-3.85 2.32c-1.38,0.76 -2.58,1.44 -4.1,2.07 -0.78,0.32 -1.36,0.61 -2.16,0.93 -0.68,0.28 -1.45,0.58 -2.23,0.85 -4.43,1.55 -10.53,2.86 -15.49,2.86l-158.95 0c-8.64,0 -17.06,-3.5 -23.67,-7.99l-5.76 -4.8c-2.4,-2.38 -5.17,-6.14 -6.87,-9.04l-2.6 -5.36c-1.86,-4.86 -2.94,-9.82 -3.15,-14.84z"/>
   <path class="fil5" d="M357.7 145.12l24.19 0 0 28.74c0,0.74 1.15,0.49 1.95,0.49l17.54 0c0.08,-0.36 0.16,-0.37 0.16,-0.81l0 -28.41 24.19 0c-0.67,-1.27 -15.88,-16.13 -16.84,-17.09 -1.15,-1.15 -16.25,-16.45 -17.09,-17.01 -0.81,0.22 -7.91,7.66 -8.65,8.4l-24.44 24.43c-0.41,0.41 -0.85,0.66 -1.01,1.26z"/>
  </g>
 </g>
</svg>
