<?xml version="1.0" encoding="UTF-8"?>
<!DOCTYPE svg PUBLIC "-//W3C//DTD SVG 1.1//EN" "http://www.w3.org/Graphics/SVG/1.1/DTD/svg11.dtd">
<!-- Creator: CorelDRAW 2021 (64-Bit) -->
<svg xmlns="http://www.w3.org/2000/svg" xml:space="preserve" width="1.47558in" height="1.47558in" version="1.1" style="shape-rendering:geometricPrecision; text-rendering:geometricPrecision; image-rendering:optimizeQuality; fill-rule:evenodd; clip-rule:evenodd"
viewBox="0 0 214.26 214.26"
 xmlns:xlink="http://www.w3.org/1999/xlink"
 xmlns:xodm="http://www.corel.com/coreldraw/odm/2003">
 <defs>
  <style type="text/css">
   <![CDATA[
    .fil4 {fill:#FEFEFE}
    .fil1 {fill:#336699}
    .fil3 {fill:#336699}
    .fil5 {fill:#339966}
    .fil8 {fill:#565656}
    .fil7 {fill:#FDFDFD}
    .fil2 {fill:#FF6600}
    .fil6 {fill:white}
    .fil0 {fill:white}
   ]]>
  </style>
 </defs>
 <g id="Layer_x0020_1">
  <metadata id="CorelCorpID_0Corel-Layer"/>
  <rect class="fil0" x="-0" y="-0" width="214.26" height="214.26"/>
  <g id="_2340391116928">
   <path class="fil1" d="M117.62 130.54c-7.25,1.21 -15.93,2.11 -23.7,3.63 -2.82,0.2 -23.35,2.07 -34.44,13.7 -11.93,12.51 -34.38,13.16 -34.38,13.16 0,0 12.28,7.41 22.31,5.77 0,0 -1.77,2.66 -3.03,3.23 -1.25,0.56 15.39,6.21 29.21,-15.69 -1.87,7.52 -4.32,19.54 -10.58,22.21 -7.96,3.39 -6.79,7.05 -7.18,9.53 -0.39,2.48 -5.22,10.18 -3.52,11.35 1.7,1.17 4.83,7.57 6.55,8.61 1.72,1.04 9.76,1.7 9.89,-0.78 0.13,-2.48 -1.57,-3.52 -1.57,-3.52 -12.79,-3.65 -7.18,-9 -6.65,-13.31 0.52,-4.31 15.01,-7.57 15.53,-6.53 0.52,1.04 0.65,5.22 -1.01,7.7 -1.67,2.48 12.89,5.35 13.93,8.74 1.04,3.39 4.44,2.61 10.05,3.26 5.61,0.65 4.7,-1.44 4.7,-1.44 -1.43,-5.74 -7.7,-4.57 -8.09,-4.57 -0.39,0 -6.66,-3.78 -9,-7.05 -2.35,-3.26 -1.05,-4.44 5.48,-6.13 6.53,-1.7 5.86,-6.63 10.43,-8.98 4.57,-2.35 11.89,-6.81 18.93,-3.28 2.29,1.14 4.69,1.73 6.9,2.02 -3.44,-5.34 -6.26,-13.92 -8.45,-25.64 -1.1,-5.9 -1.84,-11.62 -2.32,-15.99z"/>
   <path class="fil1" d="M188.23 113.68c-2.82,-1.06 -7.41,-1.76 -10.41,-7.23 -3,-5.47 -6.53,-3.88 -8.82,-6.7 -2.29,-2.82 0.53,-8.12 0,-9.78 -0.53,-1.67 -2.47,2.73 -2.47,2.73 0,0 -0.71,-1.76 -1.59,-2.65 -0.88,-0.88 -4.23,5.65 -6.18,10.06 -1.94,4.41 -3,2.82 -9.7,9.7 -4.02,4.12 -7.59,8.56 -11.55,12.17 -12.32,2.14 -23.4,0.39 -33.03,-5.25 -5.5,-3.22 -9.12,-6.97 -10.93,-9.13 0.41,-0.46 0.73,-1.01 0.94,-1.63 0.84,-2.5 -0.51,-5.21 -3.01,-6.05l-25.74 -10.14 -1.78 -2.1c-1.6,-8.84 -2.08,-11.88 -2.68,-16.52 -1.2,-9.28 -4.78,-16.36 -14.52,-17.81 -0.13,-0.02 -1.4,0 -1.47,0 -10.29,0 -15.5,8.88 -15.5,17.99 0,5.35 0,49.6 0,83.83 5.47,-0.46 10.3,-2.38 16.22,-5.5l0.94 -20.32c0.1,-1.48 1,-1.61 1.15,-0.15 0.01,0.26 0.31,9.26 0.68,19.04 5.2,-2.8 9.37,-7.63 15.19,-10.4l-0.18 -29.6c-0.86,-0.4 -1.62,-0.99 -2.21,-1.73l-21.93 -28.46 21.83 22.11c0.67,0.67 1.49,1.17 2.39,1.48l24.56 7.35c0.38,0.13 0.75,0.2 1.13,0.23 1.64,2.13 5.78,6.89 12.66,10.96 5.77,3.41 14.3,6.77 25.57,6.77 3.64,0 7.57,-0.35 11.78,-1.16 5.37,9.21 13.93,22.72 22.42,31.08 4.01,-4.75 8.5,-13.05 7.8,-15.46 -0.83,-2.87 0.09,-6.67 1.02,-8.98 0.93,-2.31 -1.02,-8.43 -0.46,-8.98 0.56,-0.56 5,3.33 6.3,3.61 1.3,0.28 2.41,-0.09 3.15,-1.02 0.74,-0.93 1.76,1.39 1.76,1.39 0,0 -0.19,7.32 1.39,1.67 1.57,-5.65 -4.41,-9.52 -4.41,-9.52 7.94,3.74 10.41,-0.56 11.64,-2.33 1.23,-1.76 0.89,-2.47 -1.94,-3.53z"/>
   <path class="fil1" d="M149.64 194.96c-1.83,-1.57 1.04,-22.45 1.04,-25.32 0,-2.7 4.28,-6.45 8.38,-9.93 -2.33,-2.3 -4.76,-5.05 -7.29,-8.25 -8.75,6.66 -19.74,8.12 -24.37,8.44 1.69,5.33 3.75,9.83 6.23,12.44 1.89,-0.11 3.1,-0.36 3.1,-0.36 5.09,7.7 4.57,24.53 6.26,26.1 1.7,1.57 3.65,5.61 4.18,6.13 0.52,0.52 8.09,0 10.57,0 2.48,0 1.57,-2.61 0.91,-5.22 -0.65,-2.61 -7.18,-2.48 -9,-4.05z"/>
   <path class="fil1" d="M29.8 195.48c0,0 -0.12,7.01 6.6,7.01 4.6,0 6.88,-3.09 6.9,-6.84l1.16 -20.21c-5.9,-1.28 -11.93,-3.65 -14.66,-5.02 0,14.3 0,25.06 0,25.06z"/>
   <path class="fil2" d="M53.51 29.94c9.34,2.11 15.97,1.67 17.15,0.61 1.19,-1.06 -0.32,-1.49 -0.32,-1.49 -5.14,0.35 -8.46,-1.41 -8.46,-1.41 -0.4,-5.28 -0.36,-8.61 -2.64,-9.55 -2.51,-1.04 -7.63,-2.42 -11.19,-2.68 -3.56,-0.26 -7.54,1.46 -10.04,4.44 -2.76,3.3 -1.8,10.59 -1.8,10.59 0,0 7.95,-2.63 17.29,-0.51z"/>
   <path class="fil1" d="M36.31 32.54c0.66,7.14 4.63,17.72 11.63,17.94 6.91,0.21 11.48,-9.83 12.65,-16.91 -2.3,-0.22 -4.95,-0.63 -7.87,-1.29 -7.5,-1.7 -14.11,-0.34 -16.42,0.26z"/>
   <path class="fil2" d="M133.72 134.88c-1.25,0.07 -2.17,0.32 -2.17,0.32 0,0 -4.29,1.34 -5.38,4.32 0,0 1,0.55 1.84,1.18 -4.82,10.06 8.04,10.11 8.04,10.11 0,0 11.1,-7.29 1.41,-12.84 0.38,-0.98 0.93,-1.98 0.93,-1.98 -1.35,-1.04 -3.22,-1.19 -4.67,-1.11zm4.97 8.31c0.05,1.5 -1.85,3.57 -3.46,4.83 -1.75,-0.16 -4.42,-0.77 -5.27,-2.13 -0.66,-1.06 -0.08,-2.77 0.52,-4.02 0.47,-0.98 0.31,-2.13 -0.37,-2.93 0.76,-0.52 1.63,-0.92 2.18,-1.11 0.19,-0.04 0.81,-0.17 1.58,-0.22 0.31,-0.02 0.6,-0.02 0.87,-0.01 -0.14,1.08 0.37,2.17 1.35,2.73 1.16,0.67 2.55,1.7 2.59,2.86z"/>
  </g>
  <g id="_2340391128880">
   <rect class="fil3" transform="matrix(0.421062 0.256526 -0.256526 0.421062 143.252 6.43912)" width="96.2" height="182.11" rx="8.47" ry="8.47"/>
   <rect class="fil4" transform="matrix(0.421062 0.256526 -0.256526 0.421062 140.467 17.3174)" width="82.89" height="134.92"/>
   <rect class="fil5" transform="matrix(0.421062 0.256526 -0.0189811 0.0311556 108.418 69.9231)" width="82.89" height="134.92"/>
   <rect class="fil5" transform="matrix(0.421062 0.256526 -0.0247532 0.04063 140.467 17.3175)" width="82.89" height="134.92"/>
   <circle class="fil6" transform="matrix(0.421062 0.256526 -0.256526 0.421062 120.386 89.2658)" r="5.45"/>
   <g>
    <path class="fil3" d="M124.95 45.69l-0.49 0.81 3.37 2.05c-0.21,0.51 -0.52,1.01 -0.74,1.53 -2.9,6.71 -0.64,15.06 5.72,19.12l-1.71 2.86 0.8 0.49 1.75 -2.84c3.92,2.43 8.46,2.34 11.45,1.62 1.45,-0.35 3.39,-1.09 4.99,-2.19 2.28,-1.58 2.75,-2.36 4.39,-4.44l2.35 1.42 0.49 -0.81 -2.35 -1.43c1.92,-4.03 2.57,-7.16 1.53,-11.42 -0.77,-3.14 -2.82,-6.79 -6.74,-9.37l1.76 -2.91 -0.81 -0.49 -1.79 2.9c-3.52,-1.96 -7.68,-2.4 -11.3,-1.5 -2.6,0.65 -5.12,2.02 -7.2,4.06 -1.28,1.26 -1.48,1.88 -2.12,2.57l-3.37 -2.04z"/>
    <path class="fil7" d="M114.91 62.25l16.19 9.81 1.71 -2.86c-6.36,-4.06 -8.62,-12.41 -5.72,-19.12 0.23,-0.52 0.53,-1.02 0.74,-1.53l-3.37 -2.05 -9.55 15.75z"/>
    <path class="fil7" d="M131.9 72.56l15.38 9.32 9.55 -15.75 -2.35 -1.42c-1.64,2.08 -2.11,2.86 -4.39,4.44 -1.59,1.1 -3.53,1.85 -4.99,2.19 -2.99,0.71 -7.53,0.8 -11.45,-1.62l-1.75 2.84z"/>
    <path class="fil7" d="M146.98 47.69c4.47,3.25 5.93,8.41 3.35,13.4l3.82 2.31c2.82,-4.8 2.39,-10.91 -0.62,-15.38 -1.15,-1.71 -2.36,-2.83 -4.23,-4.14l-2.32 3.8z"/>
    <path class="fil7" d="M136.43 65.13l-2.32 3.81c3.6,1.9 6.92,2.42 10.71,1.51 1.53,-0.37 3.04,-0.93 4.68,-2.02 1.22,-0.8 3.37,-2.68 4.13,-4.21l-3.29 -2.02c-0.76,-0.46 -0.26,-0.38 -1.53,0.99 -1.29,1.39 -3.1,2.48 -4.83,2.86 -0.27,0.06 -0.54,0.17 -0.82,0.21 -0.27,0.04 -0.62,0.07 -0.9,0.1 -2.08,0.22 -3.86,-0.25 -5.83,-1.23z"/>
    <path class="fil7" d="M133.27 68.41l2.33 -3.79c-3.73,-2.78 -5.3,-7 -4.03,-11.28 0.12,-0.39 0.75,-1.77 0.76,-1.99 -0.2,-0.32 -3.1,-1.98 -3.69,-2.29 -0.91,1.14 -1.67,4.2 -1.8,5.5 -0.57,5.61 1.74,10.54 6.42,13.85z"/>
    <path class="fil7" d="M129.15 48.24l3.74 2.27c1.1,-1.3 1.47,-1.9 2.82,-2.79 1.03,-0.68 2.18,-1.21 3.2,-1.4 0.73,-0.13 0.52,-0.2 1.67,-0.29 1.97,-0.15 3.69,0.22 5.57,1.16l2.32 -3.8c-1.87,-0.98 -3.68,-1.58 -5.53,-1.74 -3.47,-0.3 -6.79,0.45 -9.71,2.39 -1.07,0.71 -3.49,2.82 -4.09,4.18z"/>
    <polygon class="fil7" points="141.52,56.84 143.94,58.31 144.43,57.52 142,56.05 "/>
    <polygon class="fil7" points="139.2,58.84 139.94,59.29 141.45,56.84 140.69,56.37 "/>
    <polygon class="fil7" points="141.55,54.96 141.21,55.53 141.48,55.7 141.69,55.82 141.96,55.98 143.42,53.59 143.15,53.41 142.94,53.29 142.66,53.12 "/>
    <polygon class="fil7" points="140.66,56.27 141.1,55.55 138.71,54.08 138.26,54.82 "/>
    <path class="fil8" d="M140.66 56.27l-2.4 -1.45 0.45 -0.74 2.4 1.47c-0,-0.2 0.08,-0.04 -0.14,-0.22 -0.04,-0.03 -0.28,-0.16 -0.35,-0.2 -0.52,-0.3 -1.5,-0.98 -1.91,-1.11 -0.25,0.21 -0.45,0.53 -0.5,0.84l1.8 1.11c0.85,0.53 0.45,0.34 0.65,0.3z"/>
   </g>
  </g>
 </g>
</svg>
