<?xml version="1.0" encoding="UTF-8"?>
<!DOCTYPE svg PUBLIC "-//W3C//DTD SVG 1.1//EN" "http://www.w3.org/Graphics/SVG/1.1/DTD/svg11.dtd">
<!-- Creator: CorelDRAW 2021 (64-Bit) -->
<svg xmlns="http://www.w3.org/2000/svg" xml:space="preserve" width="1.47574in" height="1.47574in" version="1.1" style="shape-rendering:geometricPrecision; text-rendering:geometricPrecision; image-rendering:optimizeQuality; fill-rule:evenodd; clip-rule:evenodd"
viewBox="0 0 2663.4 2663.39"
 xmlns:xlink="http://www.w3.org/1999/xlink"
 xmlns:xodm="http://www.corel.com/coreldraw/odm/2003">
 <defs>
  <style type="text/css">
   <![CDATA[
    .fil3 {fill:#336699}
    .fil1 {fill:#336699}
    .fil2 {fill:#FF6600}
    .fil5 {fill:#FF6600}
    .fil4 {fill:white}
    .fil0 {fill:white}
   ]]>
  </style>
 </defs>
 <g id="Layer_x0020_1">
  <metadata id="CorelCorpID_0Corel-Layer"/>
  <rect class="fil0" x="0" y="-0" width="2663.39" height="2663.39"/>
  <path class="fil1" d="M2039.83 1482.81c-10.28,-24.15 3.89,-25.84 23.16,-21.65l-3.06 22.6 -20.1 -0.95zm-148.34 349.9c51.96,32.5 28.34,31.32 48.93,82.94 14.27,35.75 55.36,43.79 74.35,11.8 14.3,-25.42 0.21,-67.5 -4.94,-96.26 -7.04,-39.27 -15.33,-42.68 -44.7,-61.6 -38.88,-25.06 -89.49,-64.14 -127.57,-83.56l4.7 -78.02c14.6,-11.87 54.56,-27.88 76.22,-29.84 31.62,18.35 36.96,45.96 61.21,66.07 22.61,18.77 41.92,38.2 79.29,47.33 0.25,29.2 -7.64,30.05 17.77,32.39 36.13,-50.53 -65.62,-146.87 -71.19,-159.05 47.59,5.66 86.25,101.72 176.73,56.15 0.15,-21.86 -39.41,-68.48 -53.67,-88.84 -81.28,-115.94 43.61,-33.71 -69.03,-152.56 -25.04,-26.43 -23.33,-18.32 -52.15,-37.32 -19.5,-12.87 -11.16,-27.26 -45.21,-44.56 -31.12,-15.82 -76.11,-26.47 -88.15,16.16 -16.88,59.86 15.31,66.93 25.98,84.24 -58.73,2.05 -45.08,-67.59 -43.95,-81.93l-218.46 24.66 -9.32 30.23 -26.41 -13.02c-27.06,8.6 -39.71,27.46 -72.99,32.78 -189.86,30.27 -348.86,87.97 -450.18,255.44 -7.1,11.75 -8.81,22.82 -16.65,36.33 -15.99,27.57 -116.74,146.37 -146.11,160.65 -13.57,6.59 -22.41,13.82 -29.27,17 -49.39,22.81 -115.69,-37.45 -138.46,-55.49 -14.22,-11.28 -52.25,-68.6 -65.86,-87.35 -10.73,-14.77 -7.88,-15.41 -30.13,-16.26 -34.85,32.56 0.95,108.53 20.51,142 68.56,117.21 213.16,143.69 330.99,66.07 23.24,-15.32 38.41,-35.17 54.75,-40.94 6.58,8.92 43.93,84.62 32.23,106.21 -20.59,37.99 -150.37,39.95 -121.03,130.97 20.08,62.27 71.91,248.43 146.81,249.18 36.74,0.36 65,-37.99 46.16,-72.87 -16.35,-30.25 -33.26,-22.75 -52.15,-79.77 -9.12,-27.54 -30.92,-74.17 -31.72,-100.88 37.95,-28.86 95.01,-45.82 127.23,-79.37 8.16,-8.5 4.56,-7.16 16.95,-10.7l33.03 79.53c-9.62,24.49 -36.22,57.39 -40.42,79.21 -8.11,42.08 25.86,57.68 71.97,103.14 18.05,17.81 75.12,70.08 94.18,74.93 134.7,34.32 117.94,-63.65 87.59,-82.32 -32.14,-19.79 -26.74,8.61 -79.9,-36.28 -21.99,-18.58 -36.47,-31.39 -58.07,-54.27 1.93,-22.57 25.54,-56.74 36.34,-75.91 22.3,-39.51 13.88,-248.88 14.82,-302.65 48.58,-9.96 115.23,25.35 200.1,5.57 80.68,-18.81 124.03,-63.4 151.19,-70.65 25.02,14.5 50.78,34.17 79.77,52.59 26.85,17.05 49.64,31.07 77.89,48.74z"/>
  <rect class="fil2" x="1739.74" y="1959.28" width="365.82" height="206.61"/>
  <rect class="fil2" x="2189.9" y="1799.69" width="365.82" height="365.82"/>
  <rect class="fil2" x="2189.9" y="1351.56" width="365.82" height="365.82"/>
  <circle class="fil3" transform="matrix(1.39098 0.326751 -0.326751 1.39098 575.739 512.739)" r="141"/>
  <path class="fil3" d="M1001.88 1247.51c33.38,12.36 56.13,62.02 47.78,97.59 -8.36,35.56 -57.59,59.58 -92.97,55.79l-43.44 -37.6 -21.96 -44.07 -211.47 -247.4 -27.01 123.63 -141.12 -35.61c-11.66,-2.94 -23.6,4.19 -26.55,15.85l-50.6 200.56c-2.94,11.67 4.19,23.61 15.85,26.56l148.92 37.57 -2.97 13.59 1.41 99.11 -0.02 0 -0.99 733.48 0.01 0.74 -0.02 0.72 0 3.77 -0.09 0c-2.42,59.73 -51.65,107.37 -111.97,107.3 -60.3,-0.1 -109.42,-47.86 -111.68,-107.6l-0.09 0 0.01 -3.76 -0.02 -0.72 0.02 -0.73 0.99 -733.49 -40.32 -0.06 -0.99 737.99 0.01 0.74 -0.01 0.7 -0.01 3.75 -0.08 -0.01c-2.42,59.76 -51.66,107.41 -111.98,107.31 -60.3,-0.08 -109.41,-47.85 -111.68,-107.61l-0.1 0.01 0.01 -3.75 -0.01 -0.71 0.01 -0.73 0.99 -737.99 0.19 -130.53 -4.63 -1.08 4.65 -19.79 0 -0.84 0.19 0 29.57 -136.48 185.39 -12.56c86.74,5 111.31,-92.02 101,-114.43 -12.93,-57.85 -84.84,-92.76 -128.47,-59.89l-111.47 0.63 11.92 -51.59 15.04 -64.03 -9.1 4.42c-50.68,59.28 -68.86,114.99 -16.56,134.09l109.05 -0.07c15.9,-10.55 35.96,-14.75 55.99,-10.05 38.5,9.05 62.39,47.6 53.35,86.1 -8.92,37.99 -46.57,61.75 -84.53,53.71l-168.73 13.88c-119.82,-23.16 -159.03,-111.32 -119.94,-262.7 69.25,-172.52 171.13,-238.95 308.11,-230.01l353.13 82.98c39.11,5.94 68.45,23.65 83.5,58.51l224.49 354.81z"/>
  <polygon class="fil3" points="1667.62,2214.8 2613.6,2214.8 2613.6,2318 2612.52,2318 2612.52,2418 2496.42,2418 2496.42,2318 2198.66,2318 2198.66,2416.92 2082.56,2416.92 2082.56,2318 1784.8,2318 1784.8,2415.83 1668.69,2415.83 1668.69,2318 1667.62,2318 "/>
  <path class="fil1" d="M1008.43 1365.91l5.26 -36.81c52.6,81.55 234.91,99.01 578.54,36.81l-6.58 42.08c-382.04,53.73 -553.7,31.3 -577.22,-42.08z"/>
  <path class="fil4" d="M1480.48 1415.85l156.47 -42.07c53.04,2.18 159.97,102.99 206.43,251.13l-0.2 36.56c-104.91,-159.84 -235.46,-24.49 -145.77,89.16 -21.15,17.78 -50.71,28.74 -84.14,41.27 11.21,-156.38 -40.33,-260.04 -132.8,-376.05z"/>
  <path class="fil5" d="M1633.42 1420.26c-12.16,3.07 -20.88,7.25 -20.88,7.25 0,0 -39.79,21.41 -44.96,52.84 0,0 10.96,3.57 20.45,8.14 -28.53,108.53 98.6,84.68 98.6,84.68 0,0 95.84,-93.07 -10.42,-129.53 1.9,-10.37 5.43,-21.3 5.43,-21.3 -15.28,-7.7 -34.08,-5.64 -48.22,-2.08zm64.89 72.71c3.33,14.69 -11.45,38.8 -25.03,54.26 -17.56,1.71 -45.15,0.8 -56.13,-11.06 -8.51,-9.19 -6.05,-27.21 -2.51,-40.7 2.78,-10.59 -1,-21.59 -9.18,-28.29 6.48,-6.62 14.39,-12.21 19.47,-15.1 1.84,-0.81 7.7,-3.26 15.21,-5.15 2.98,-0.75 5.86,-1.33 8.6,-1.72 0.63,10.94 7.78,20.75 18.54,24.44 12.74,4.38 28.46,11.97 31.03,23.31z"/>
  <path class="fil5" d="M665.91 476.11c121.65,88.79 220.07,123.81 243.82,115.9 23.74,-7.92 4.73,-23.48 4.73,-23.48 -76.4,-27.01 -113.36,-73.16 -113.36,-73.16 27.24,-78.66 48.52,-126.54 21.54,-154.34 -29.74,-30.67 -95.04,-82.54 -144.77,-108.57 -49.73,-26.03 -118.04,-25.96 -172.67,1.49 -60.4,30.35 -92.1,141.63 -92.1,141.63 0,0 131.17,11.75 252.8,100.53z"/>
  <g id="_2340300237104">
   <circle class="fil2" transform="matrix(-1.37445 -1.51908 1.51908 -1.37445 1059.78 1050.5)" r="40.74"/>
   <path class="fil2" d="M1366.83 1068.29c0.65,-80.96 -29.15,-159.21 -83.47,-219.25 -60.21,-66.54 -145.4,-105.04 -235.13,-106.25l-0.63 47.04c76.65,1.03 149.43,33.9 200.89,90.77 46.16,51.02 71.59,117.45 71.31,186.25l47.03 1.44z"/>
   <path class="fil2" d="M1209.94 1072.05l47 1.79c2.12,-55.64 -17.61,-109.89 -54.95,-151.17 -40.34,-44.58 -97.62,-70.06 -157.75,-70.17l0.21 47.04c46.76,0.16 91.29,20.01 122.67,54.68 29.11,32.18 44.48,74.47 42.83,117.82z"/>
  </g>
  <path class="fil3" d="M502.58 1199.21l-42.97 168.32c-1.75,6.84 3.46,16.84 11.88,18.94l203.31 50.7c6.31,1.58 12.65,-1.52 16.01,-5.18 4.09,-4.45 5.31,-12.82 7.12,-19.9 3.83,-15.01 7.67,-30.03 11.5,-45.06l50.12 82.6 46.7 -182.4 -83.77 49.21 14.05 -55.58c1.24,-4.75 1.68,-6.39 0.74,-10.11 -1.27,-5 -5.11,-10.81 -11.7,-12.45l-203.32 -50.7c-8.09,-2.02 -17.64,3.62 -19.68,11.62z"/>
  <polygon class="fil5" points="657.88,1323.83 600.25,1340.18 542.62,1356.53 557.27,1298.44 571.93,1240.36 614.91,1282.09 "/>
 </g>
</svg>
