<?xml version="1.0" encoding="UTF-8"?>
<!DOCTYPE svg PUBLIC "-//W3C//DTD SVG 1.1//EN" "http://www.w3.org/Graphics/SVG/1.1/DTD/svg11.dtd">
<!-- Creator: CorelDRAW 2021 (64-Bit) -->
<svg xmlns="http://www.w3.org/2000/svg" xml:space="preserve" width="1.47558in" height="1.47558in" version="1.1" style="shape-rendering:geometricPrecision; text-rendering:geometricPrecision; image-rendering:optimizeQuality; fill-rule:evenodd; clip-rule:evenodd"
viewBox="0 0 7660.33 7660.33"
 xmlns:xlink="http://www.w3.org/1999/xlink"
 xmlns:xodm="http://www.corel.com/coreldraw/odm/2003">
 <defs>
  <style type="text/css">
   <![CDATA[
    .str1 {stroke:gray;stroke-width:86.52;stroke-miterlimit:2.61313}
    .str0 {stroke:white;stroke-width:86.52;stroke-miterlimit:2.61313}
    .fil2 {fill:#336699}
    .fil5 {fill:#FF6600}
    .fil3 {fill:#FF6600}
    .fil4 {fill:white}
    .fil0 {fill:white}
    .fil1 {fill:#339966;fill-rule:nonzero}
   ]]>
  </style>
 </defs>
 <g id="Layer_x0020_1">
  <metadata id="CorelCorpID_0Corel-Layer"/>
  <rect class="fil0" x="-0.01" y="-0" width="7660.34" height="7660.34"/>
  <path class="fil1 str0" d="M7291.99 149.28l106.44 361.31c-368.81,266.66 -710.49,603.82 -1025.16,1011.38 -314.65,408.24 -542.28,807.24 -681.54,1198.39l-83.14 55.96c-72.21,47.38 -133.48,95.45 -185.09,142.89 -8.97,-46.15 -33.5,-121.18 -74.13,-223.9l-43.21 -109.94c-94.1,-238.4 -174.01,-404.3 -238.56,-499.11 -65.1,-94.16 -135.39,-145.54 -210.86,-153.45 101.93,-95.45 141.15,-404.74 216.57,-404.74 104.46,0 217.57,144.36 343.65,431.27l67.69 154.11c223.15,-407.63 492.02,-782.98 807.28,-1126.64 315.22,-343.65 648.62,-622.89 1000.06,-837.53z"/>
  <g id="_2340192864688">
   <path class="fil2" d="M3816.08 4667.29c-259.37,43.08 -569.68,75.4 -847.28,129.95 -100.99,7.28 -834.85,73.84 -1231.34,489.77 -426.37,447.3 -1229.01,470.62 -1229.01,470.62 0,0 438.96,264.95 797.78,206.41 0,0 -63.28,95.14 -108.34,115.36 -44.6,20.01 550.35,222.02 1044.31,-561.12 -66.87,268.99 -154.31,698.63 -378.2,794.08 -284.61,121.3 -242.61,251.95 -256.59,340.59 -14.02,88.66 -186.64,363.93 -126.02,405.93 60.68,41.98 172.67,270.61 234.21,307.93 61.54,37.32 349.01,60.66 353.69,-27.98 4.68,-88.66 -56,-125.98 -56,-125.98 -457.21,-130.66 -256.61,-321.95 -237.93,-475.91 18.64,-153.96 536.55,-270.61 555.21,-233.29 18.66,37.32 23.34,186.64 -36.22,275.29 -59.56,88.64 460.77,191.28 498.11,312.59 37.34,121.32 158.62,93.34 359.27,116.66 200.6,23.32 167.94,-51.32 167.94,-51.32 -51.3,-205.31 -275.27,-163.3 -289.27,-163.3 -14,0 -237.95,-135.3 -321.93,-251.95 -84,-116.64 -37.44,-158.62 195.82,-219.31 233.29,-60.64 209.68,-237.21 372.98,-321.19 163.26,-83.98 425,-243.34 676.95,-117.36 81.71,40.88 167.74,62.01 246.69,72.05 -122.84,-191.04 -223.97,-497.72 -301.94,-916.73 -39.24,-210.97 -65.83,-415.37 -82.9,-571.77z"/>
   <path class="fil2" d="M6340.76 4064.25c-100.93,-37.85 -264.95,-63.07 -372.17,-258.61 -107.22,-195.54 -233.39,-138.78 -315.39,-239.68 -81.98,-100.95 18.93,-290.17 0,-349.83 -18.93,-59.66 -88.29,97.51 -88.29,97.51 0,0 -25.24,-63.09 -56.76,-94.61 -31.54,-31.54 -151.41,201.83 -220.78,359.51 -69.39,157.68 -107.26,100.95 -346.92,346.92 -143.56,147.36 -271.36,305.9 -413.06,435.22 -440.33,76.69 -836.78,13.88 -1180.76,-187.63 -196.56,-115.13 -326.08,-249.37 -390.87,-326.51 14.59,-16.58 26.2,-36.22 33.66,-58.45 30.04,-89.52 -18.19,-186.44 -107.71,-216.46l-920.21 -362.56 -63.71 -75.09c-57.29,-316.16 -74.48,-424.73 -95.92,-590.51 -42.92,-331.62 -170.99,-584.97 -518.96,-636.58 -4.6,-0.69 -49.97,0 -52.69,0 -368.04,0 -554.01,317.53 -554.01,643.06 0,191.26 0,1773.23 0,2997.07 195.56,-16.62 368.34,-85.04 579.88,-196.54l33.64 -726.57c3.41,-52.98 35.62,-57.58 41.16,-5.5 0.47,9.4 11,331.04 24.38,680.6 185.99,-100.25 334.93,-272.83 543.15,-372l-6.58 -1058.19c-30.78,-14.2 -57.8,-35.32 -79.06,-61.72l-784.02 -1017.35 780.59 790.56c24.02,23.93 53.26,42 85.39,52.75l878.18 262.78c13.41,4.48 26.98,7.05 40.43,8.15 58.78,76.26 206.65,246.26 452.49,391.77 206.12,121.96 511.21,241.93 914.07,241.93 130.15,0 270.57,-12.55 421.08,-41.59 191.84,329.39 498.07,812.17 801.52,1111.14 143.32,-169.66 303.98,-466.49 278.88,-552.9 -29.8,-102.64 3.29,-238.37 36.4,-321.15 33.09,-82.76 -36.4,-301.26 -16.53,-321.11 19.85,-19.87 178.78,119.18 225.11,129.11 46.35,9.91 86.07,-3.31 112.58,-36.4 26.47,-33.11 62.89,49.65 62.89,49.65 0,0 -6.64,261.55 49.67,59.62 56.27,-201.97 -157.66,-340.38 -157.66,-340.38 283.83,133.71 372.17,-20.17 416.13,-83.25 43.98,-63.09 31.66,-88.34 -69.25,-126.19z"/>
   <path class="fil2" d="M4961.03 6970.2c-65.3,-55.98 37.34,-802.48 37.34,-905.12 0,-96.65 153.04,-230.53 299.47,-354.9 -83.33,-82.16 -170.25,-180.55 -260.65,-294.89 -312.67,237.95 -705.66,290.21 -871.44,301.65 60.52,190.71 134.22,351.52 222.74,444.91 67.41,-3.88 110.65,-12.79 110.65,-12.79 181.94,275.29 163.28,877.16 223.97,933.14 60.64,56 130.64,200.62 149.3,219.31 18.66,18.66 289.25,0 377.89,0 88.68,0 56,-93.32 32.66,-186.64 -23.32,-93.32 -256.61,-88.64 -321.93,-144.66z"/>
   <path class="fil2" d="M676.21 6988.74c0,0 -4.33,250.45 235.96,250.45 164.37,0 245.98,-110.47 246.61,-244.47l41.61 -722.5c-210.93,-45.91 -426.41,-130.54 -524.19,-179.37 0,511.35 0,895.88 0,895.88z"/>
   <path class="fil3" d="M1523.9 1070.47c333.93,75.48 570.89,59.74 613.3,21.83 42.39,-37.95 -11.3,-53.28 -11.3,-53.28 -183.78,12.57 -302.55,-50.34 -302.55,-50.34 -14.14,-188.73 -12.94,-307.83 -94.32,-341.49 -89.73,-37.16 -272.79,-86.46 -400.02,-95.9 -127.25,-9.44 -269.73,52.34 -358.94,158.91 -98.64,117.83 -64.38,378.62 -64.38,378.62 0,0 284.3,-93.85 618.23,-18.35z"/>
   <path class="fil2" d="M909.17 1163.42c23.71,255.4 165.55,633.68 415.76,641.26 246.88,7.48 410.41,-351.56 452.37,-604.59 -82.33,-7.89 -177.04,-22.56 -281.21,-46.11 -268.3,-60.66 -504.38,-12.04 -586.91,9.44z"/>
   <path class="fil3" d="M4391.7 4822.44c-44.54,2.55 -77.73,11.3 -77.73,11.3 0,0 -153.23,48.07 -192.33,154.29 0,0 35.85,19.8 65.91,42.12 -172.28,359.66 287.39,361.6 287.39,361.6 0,0 396.84,-260.61 50.42,-459.03 13.59,-34.91 33.21,-70.72 33.21,-70.72 -48.17,-37.12 -115.17,-42.51 -166.88,-39.57zm177.73 297.26c1.78,53.51 -65.98,127.72 -123.69,172.6 -62.42,-5.78 -158.11,-27.43 -188.48,-76.19 -23.52,-37.75 -2.9,-98.98 18.52,-143.72 16.8,-35.11 10.98,-76.03 -13.08,-104.87 27.04,-18.76 58.39,-32.99 78.05,-39.67 6.97,-1.59 29.08,-6.21 56.53,-7.79 10.91,-0.63 21.34,-0.69 31.15,-0.22 -5.15,38.61 13.26,77.61 48.34,97.7 41.53,23.81 91.3,60.85 92.67,102.17z"/>
  </g>
  <g id="_2340192800512">
   <rect class="fil4 str1" x="2710.32" y="538.41" width="1992.85" height="2543.55"/>
   <rect class="fil5" x="3050.91" y="850.13" width="1327.06" height="195.47"/>
   <rect class="fil5" x="3052.6" y="1266.85" width="1327.06" height="195.47"/>
   <rect class="fil2" x="3067.04" y="1679.77" width="1327.06" height="195.47"/>
   <rect class="fil2" x="3067.04" y="2056.86" width="1327.06" height="195.47"/>
   <rect class="fil2" x="3060.47" y="2419.97" width="1327.06" height="195.47"/>
  </g>
 </g>
</svg>
