<?xml version="1.0" encoding="UTF-8"?>
<!DOCTYPE svg PUBLIC "-//W3C//DTD SVG 1.1//EN" "http://www.w3.org/Graphics/SVG/1.1/DTD/svg11.dtd">
<!-- Creator: CorelDRAW 2021 (64-Bit) -->
<svg xmlns="http://www.w3.org/2000/svg" xml:space="preserve" width="1.47558in" height="1.47558in" version="1.1" style="shape-rendering:geometricPrecision; text-rendering:geometricPrecision; image-rendering:optimizeQuality; fill-rule:evenodd; clip-rule:evenodd"
viewBox="0 0 936.74 936.74"
 xmlns:xlink="http://www.w3.org/1999/xlink"
 xmlns:xodm="http://www.corel.com/coreldraw/odm/2003">
 <defs>
  <style type="text/css">
   <![CDATA[
    .str0 {stroke:white;stroke-width:10.58;stroke-miterlimit:2.61313}
    .fil2 {fill:#FEFEFE}
    .fil1 {fill:#336699}
    .fil3 {fill:#339966}
    .fil5 {fill:#7A9EBF}
    .fil6 {fill:#FF6600}
    .fil8 {fill:#FF6600}
    .fil4 {fill:white}
    .fil7 {fill:white}
    .fil0 {fill:white}
    .fil10 {fill:#339966;fill-rule:nonzero}
    .fil9 {fill:#A7BFD6;fill-rule:nonzero}
   ]]>
  </style>
 </defs>
 <g id="Layer_x0020_1">
  <metadata id="CorelCorpID_0Corel-Layer"/>
  <rect class="fil0" x="0" y="-0" width="936.74" height="936.74"/>
  <g id="_2340300242672">
   <rect class="fil1" transform="matrix(0.764661 -0.422817 0.422817 0.764661 36.7043 289.629)" width="420.57" height="796.18" rx="37.03" ry="37.03"/>
   <rect class="fil2" transform="matrix(0.764661 -0.422817 0.422817 0.764661 99.2168 350.14)" width="362.38" height="589.86"/>
   <rect class="fil3" transform="matrix(0.764661 -0.422817 0.0312855 0.0565795 330.166 767.81)" width="362.38" height="589.86"/>
   <rect class="fil3" transform="matrix(0.764661 -0.422817 0.0407993 0.0737853 99.2173 350.141)" width="362.38" height="589.86"/>
   <circle class="fil4" transform="matrix(0.764661 -0.422817 0.422817 0.764661 506.289 761.54)" r="23.81"/>
   <circle class="fil5" transform="matrix(0.403014 -0.222845 0.222845 0.403014 198.556 413.982)" r="47.61"/>
   <rect class="fil5" transform="matrix(0.325937 -0.180226 0.180226 0.325937 225.678 373.157)" width="491.99" height="132.25" rx="66.13" ry="66.13"/>
   <g>
    <g>
     <path class="fil1" d="M363.51 479.72c-0.62,-5.85 -3.58,-4.63 -6.89,-1.71l3.06 4.09 3.83 -2.38zm92.96 -74.74l45.2 81.21c-4.02,2.48 -8.55,4.69 -13.84,6.21 -17.85,5.11 -31.19,1.1 -37.3,2.64 -3.32,5.57 -6.22,12.23 -9.89,18.99 -3.4,6.27 -6.33,11.49 -9.94,18.03 -6.63,12.03 -2.13,9.22 -0.54,21.57 1.1,8.56 -6.07,14.61 -13.27,10.41 -5.57,-3.42 -7.4,-13.19 -9.52,-19.39 -2.9,-8.46 -1.65,-10.03 2.04,-16.94 4.88,-9.14 10.53,-22.31 15.87,-30.26l-9.42 -14.77c-4.15,-0.73 -13.72,0.49 -18.18,2.47 -4.19,7.04 -2.23,13.03 -4.78,19.61 -2.38,6.14 -4.04,12.05 -10.37,17.91 3.13,5.74 4.77,5.05 0.05,8.28 -12.58,-5.96 -3.16,-35.91 -3.39,-38.9 -8.7,6.29 -5.8,29.32 -28.49,30.25 -2.41,-4.26 0.25,-17.7 0.83,-23.24 3.28,-31.56 -12.21,-1.85 -3.11,-37.4 2.02,-7.9 2.57,-6.13 6.14,-12.99 2.42,-4.64 -0.78,-6.55 4,-13.65 4.37,-6.49 12.02,-13.48 19.02,-6.44 9.83,9.88 4.3,14.77 4.09,19.32 11.72,-6 1.46,-18.15 -0.32,-20.83l45.46 -18.98 5.12 4.9 3.75 -5.43c6.24,-1.27 10.77,1.05 17.87,-1.54l2.94 -1.06z"/>
     <rect class="fil6" transform="matrix(-0.677032 0.376843 0.212834 0.382376 474.199 540.314)" width="105.8" height="105.8"/>
     <polygon class="fil6" points="368.66,558.13 305.89,593.07 345.76,664.7 408.53,629.76 "/>
     <polygon class="fil6" points="319.82,470.38 257.05,505.32 296.92,576.95 359.69,542.01 "/>
     <polygon class="fil1" points="516.17,582.48 351.13,674.35 359.83,689.98 524.87,598.12 "/>
     <path class="fil1" d="M454.92 402.21c-5.26,1.94 -10.76,3.88 -16.51,5.85l5.87 7.52c5.14,-1.98 10.08,-3.93 14.82,-5.85l-4.18 -7.52z"/>
     <path class="fil7" d="M457.92 407.6l-27.41 6.86c-10.15,6.21 -20.1,37.6 -13.05,71.67l4.02 7.14c3.12,-42.73 43.44,-30.46 38.26,1.57 6.08,1.17 13.06,0.1 20.97,-1.09 -16.68,-25.48 -19.8,-48.35 -16.78,-75.35l-6.01 -10.8z"/>
     <path class="fil8" d="M436.27 423.18c2.72,-0.72 4.88,-0.86 4.88,-0.86 0,0 10.12,-0.14 14.56,5.45 0,0 -1.76,1.89 -3.12,3.82 17.42,18.14 -10.08,27.33 -10.08,27.33 0,0 -28.91,-7.78 -12.08,-26.5 -1.5,-1.82 -3.38,-3.58 -3.38,-3.58 2.15,-3.17 6.06,-4.82 9.21,-5.66zm-4.78 21.31c0.95,3.24 6.47,6.35 10.81,7.9 3.62,-1.58 8.93,-4.76 9.78,-8.28 0.66,-2.72 -1.78,-5.99 -3.95,-8.24 -1.7,-1.77 -2.16,-4.34 -1.28,-6.54 -1.99,-0.59 -4.15,-0.82 -5.46,-0.83 -0.45,0.04 -1.86,0.2 -3.54,0.65 -0.66,0.18 -1.29,0.38 -1.87,0.6 1.07,2.21 0.74,4.91 -0.97,6.81 -2.02,2.24 -4.27,5.44 -3.53,7.95z"/>
    </g>
    <path class="fil9" d="M195.15 478.33l238.59 -132.8 132.54 238.11 -240.21 133.71 -132.54 -238.12 1.62 -0.9zm237.14 -127.74l-233.71 130.09 128.92 231.61 233.71 -130.09 -128.92 -231.61z"/>
   </g>
  </g>
  <path class="fil10 str0" d="M826.61 61.67l13.77 46.74c-47.71,34.49 -91.9,78.11 -132.61,130.83 -40.7,52.81 -70.14,104.42 -88.16,155.01l-10.75 7.24c-9.34,6.13 -17.27,12.35 -23.94,18.48 -1.16,-5.97 -4.33,-15.67 -9.59,-28.96l-5.59 -14.22c-12.17,-30.84 -22.51,-52.3 -30.86,-64.56 -8.42,-12.18 -17.51,-18.83 -27.27,-19.85 13.19,-12.35 18.26,-52.36 28.01,-52.36 13.51,0 28.14,18.67 44.45,55.78l8.76 19.93c28.86,-52.73 63.64,-101.28 104.42,-145.73 40.78,-44.45 83.9,-80.57 129.36,-108.34z"/>
  <rect class="fil5" transform="matrix(0.914699 -0.513351 0.489416 0.872051 191.571 475.893)" width="260.17" height="18.38"/>
  <rect class="fil5" transform="matrix(0.914699 -0.513351 0.489416 0.872051 324.827 714.514)" width="260.17" height="18.38"/>
 </g>
</svg>
