<?xml version="1.0" encoding="UTF-8"?>
<!DOCTYPE svg PUBLIC "-//W3C//DTD SVG 1.1//EN" "http://www.w3.org/Graphics/SVG/1.1/DTD/svg11.dtd">
<!-- Creator: CorelDRAW 2021 (64-Bit) -->
<svg xmlns="http://www.w3.org/2000/svg" xml:space="preserve" width="1.47558in" height="1.47558in" version="1.1" style="shape-rendering:geometricPrecision; text-rendering:geometricPrecision; image-rendering:optimizeQuality; fill-rule:evenodd; clip-rule:evenodd"
viewBox="0 0 397.44 397.44"
 xmlns:xlink="http://www.w3.org/1999/xlink"
 xmlns:xodm="http://www.corel.com/coreldraw/odm/2003">
 <defs>
  <style type="text/css">
   <![CDATA[
    .fil1 {fill:black}
    .fil2 {fill:#336699}
    .fil3 {fill:white}
    .fil0 {fill:white}
   ]]>
  </style>
 </defs>
 <g id="Layer_x0020_1">
  <metadata id="CorelCorpID_0Corel-Layer"/>
  <rect class="fil0" x="-0" y="-0" width="397.44" height="397.44"/>
  <path class="fil1" d="M169.26 90.85c-0.98,-1.05 -53.47,-26.62 -54.68,-26.65 0.24,2.23 1.1,6.74 1.28,7.75l1.43 7.92c0.36,1.82 0.65,3.45 1.03,5.34 0.24,1.21 0.87,4.14 0.82,5.3l-6.51 2.99c-16.4,7.75 -32.36,20.2 -43.41,34.62 -11.54,15.05 -18.41,30.23 -22.21,48.21l7.61 2.86c3.57,-9.89 5.02,-17.46 12.37,-26.18 13.47,-15.98 30.58,-30.41 50.53,-34.9 2.82,-0.64 5.49,-1.75 6.7,0.22 0.42,0.68 2.4,11.98 2.68,13.62 0.7,4.1 1.35,13.36 2.36,13.31 2.4,-2.27 40.11,-51.38 39.98,-54.4z"/>
  <g id="_2340190560112">
   <path class="fil2" d="M329.46 140.94l-110.37 0c-4.91,0 -8.43,-0.98 -12.04,-3.68l-2.83 -2.73c-1.61,-1.84 -2.78,-4.37 -3.43,-6.73 -1,-3.66 -0.63,-7.94 0.79,-11.46 0.79,-1.97 2.14,-4.06 3.53,-5.45 1.07,-1.06 2.46,-2.2 3.81,-2.92 4.01,-2.16 8.46,-2.9 13.2,-2.09 0.98,0.17 5.04,1.03 5.7,1.03 0.17,-2 0.46,-4.09 0.59,-6.14 0.48,-7.1 3.9,-13.36 9.13,-17.81 3.66,-3.11 9.54,-5.59 14.62,-5.59 5.39,0 4.99,0.03 10.15,1.55 0.57,0.17 1.63,0.53 2.26,0.58 0.26,-1.12 2.46,-5.61 3.11,-6.81 1.63,-3 3.55,-5.22 5.9,-7.57 5.29,-5.29 13.72,-9.01 21.36,-9.01 3.25,0 5.02,0.1 8.11,0.87 2.16,0.54 3.76,1.13 5.64,1.93 2.56,1.1 4.86,2.55 6.97,4.25 0.71,0.58 1.36,1.14 2,1.78 1.74,1.74 2.08,2.09 3.53,3.91 3.23,4.04 6.25,11.21 6.25,16.44l0 6.14 5.72 0.66c2.07,0.29 3.59,0.56 5.34,1.16 2.39,0.82 6.31,2.87 8.17,4.71 0.56,0.56 1.12,0.91 1.65,1.54l1.08 1.28c0.97,1.2 1.56,1.9 2.34,3.33 0.23,0.41 0.38,0.64 0.59,1.06 1.4,2.81 2.75,6.77 2.76,10.12 0.01,4.92 0.21,6.33 -1.67,10.98 -2.29,5.64 -7.45,10.37 -13.05,12.71 -3.34,1.4 -6.25,1.96 -10.92,1.96zm-143.45 -16.4l0 -2.66c0.09,-2.14 0.4,-4.29 0.94,-6.45 0.96,-3.8 2.48,-7.27 4.68,-10.45 0.53,-0.77 1.06,-1.42 1.63,-2.15l4.73 -4.73c4.03,-3.15 9.22,-5.67 14.39,-6.41l3.29 -0.37c0.16,-0.68 0.3,-1.08 0.54,-1.7 1.39,-3.59 2.83,-6.85 5.16,-9.96l2.47 -3.09c0.79,-0.98 1.78,-1.87 2.67,-2.76l1.12 -1.01c0.42,-0.37 0.69,-0.64 1.14,-0.99 0.43,-0.34 0.74,-0.62 1.18,-0.95 4.69,-3.51 9.09,-5.48 14.88,-6.86 3.96,-0.94 7.67,-0.92 11.96,-0.92 1,-1.89 3.08,-4.14 4.52,-5.87l2.42 -2.31c1.36,-1.26 3.58,-3.26 5.16,-4.3 0.44,-0.29 0.69,-0.5 1.11,-0.78 12.54,-8.39 28.25,-10.56 42.99,-4.65 6.25,2.51 10.02,5.24 14.85,9.49 0.95,0.83 1.83,1.94 2.54,2.66 1.26,1.26 4.09,5.23 4.89,6.57 1.34,2.23 2.4,4.27 3.47,6.81 0.28,0.66 0.45,1.22 0.71,1.89 0.44,1.15 1.57,5.01 1.59,5.98 0.5,0.04 1.35,0.32 1.79,0.46 5.41,1.66 11.53,5.22 15.49,9.2 0.76,0.77 1.43,1.52 2.13,2.36 0.72,0.86 1.32,1.61 1.99,2.5 0.63,0.84 1.26,1.74 1.82,2.67 1.28,2.09 2.1,3.73 3,5.98 0.44,1.09 0.8,2.17 1.17,3.32 1.43,4.47 1.96,10.32 1.32,15.83 -0.46,4 -1.46,7.12 -2.9,10.58 -0.74,1.78 -2.14,4.29 -3.16,5.82 -2.21,3.32 -3.46,4.6 -6.15,7.32 -1.19,1.2 -3.64,3.06 -5,3.98l-2.8 1.69c-1,0.56 -1.87,1.04 -2.99,1.51 -0.57,0.24 -0.99,0.44 -1.57,0.68 -0.5,0.2 -1.05,0.42 -1.63,0.62 -3.22,1.13 -7.66,2.08 -11.27,2.08l-115.68 0c-6.29,0 -12.42,-2.55 -17.23,-5.81l-4.19 -3.49c-1.74,-1.73 -3.76,-4.47 -5,-6.58l-1.89 -3.9c-1.35,-3.54 -2.14,-7.15 -2.29,-10.8z"/>
   <path class="fil2" d="M260.33 105.61l17.61 0 0 20.92c0,0.54 0.84,0.36 1.42,0.35l12.76 0c0.06,-0.27 0.12,-0.27 0.12,-0.59l0 -20.68 17.61 0c-0.49,-0.93 -11.56,-11.74 -12.26,-12.44 -0.84,-0.84 -11.83,-11.97 -12.44,-12.38 -0.59,0.16 -5.75,5.58 -6.29,6.12l-17.78 17.78c-0.3,0.3 -0.62,0.48 -0.74,0.92z"/>
  </g>
  <path class="fil2" d="M51.67 223.5l0 122.14c0,4.97 5.23,10.9 11.27,10.9l145.82 0c4.52,0 8.26,-3.19 9.9,-6.26 1.99,-3.73 1.37,-9.65 1.37,-14.79 0,-10.9 0,-21.8 0,-32.7l48.01 47.82 0.09 -132.38 -48.01 47.82 -0.09 -40.31c0.01,-3.45 0.04,-4.65 -1.24,-7.03 -1.72,-3.2 -5.31,-6.5 -10.03,-6.5l-145.82 0c-5.8,0 -11.27,5.47 -11.27,11.27z"/>
  <polygon class="fil3" points="178.09,283.08 142.02,303.91 105.94,324.75 105.94,283.08 105.94,241.43 142.02,262.25 "/>
 </g>
</svg>
