<?xml version="1.0" ?><!DOCTYPE svg  PUBLIC '-//W3C//DTD SVG 1.1//EN'  'http://www.w3.org/Graphics/SVG/1.1/DTD/svg11.dtd'><svg enable-background="new 0 0 100 100" height="100px" version="1.1" viewBox="0 0 100 100" width="100px" xml:space="preserve" xmlns="http://www.w3.org/2000/svg" xmlns:xlink="http://www.w3.org/1999/xlink"><g id="Layer_3"/><g id="Layer_1"><g><g><g><path d="      M88,81c0,4.418-3.582,8-8,8H20c-4.418,0-8-3.582-8-8V20c0-4.418,3.582-8,8-8h60c4.418,0,8,3.582,8,8V81z" fill="none" stroke="#000000" stroke-linecap="round" stroke-linejoin="round" stroke-miterlimit="10" stroke-width="4"/></g><g><line fill="none" stroke="#000000" stroke-linecap="round" stroke-linejoin="round" stroke-miterlimit="10" stroke-width="4" x1="12" x2="88" y1="30" y2="30"/></g></g><g><g><line fill="none" stroke="#000000" stroke-linecap="round" stroke-linejoin="round" stroke-miterlimit="10" stroke-width="4" x1="22" x2="36" y1="22" y2="22"/></g><circle cx="57.567" cy="21.333" r="2.8"/><circle cx="67.567" cy="21.333" r="2.8"/><circle cx="77.567" cy="21.333" r="2.8"/></g><g><path d="     M88,81c0,4.418-3.582,8-8,8H20c-4.418,0-8-3.582-8-8V20c0-4.418,3.582-8,8-8h60c4.418,0,8,3.582,8,8V81z" fill="none" stroke="#000000" stroke-linecap="round" stroke-linejoin="round" stroke-miterlimit="10" stroke-width="4"/></g><g><line fill="#FFFFFF" stroke="#000000" stroke-linecap="round" stroke-linejoin="round" stroke-miterlimit="10" stroke-width="4" x1="12" x2="88" y1="30" y2="30"/></g><g><line fill="none" stroke="#000000" stroke-linecap="round" stroke-linejoin="round" stroke-miterlimit="10" stroke-width="4" x1="22" x2="36" y1="22" y2="22"/></g><circle cx="57.567" cy="21.333" r="2.8"/><circle cx="67.567" cy="21.333" r="2.8"/><circle cx="77.567" cy="21.333" r="2.8"/></g></g><g id="Layer_2"><g><g><polyline fill="none" points="     28.086,60.178 22.123,56.501 28.086,52.824    " stroke="#000000" stroke-linecap="round" stroke-linejoin="round" stroke-miterlimit="10" stroke-width="4"/><polyline fill="none" points="     72.913,60.178 78.877,56.501 72.913,52.824    " stroke="#000000" stroke-linecap="round" stroke-linejoin="round" stroke-miterlimit="10" stroke-width="4"/></g><rect fill="none" height="19" stroke="#000000" stroke-linecap="round" stroke-linejoin="round" stroke-miterlimit="10" stroke-width="4" width="19" x="41" y="48"/></g></g></svg>