<?xml version="1.0" ?><svg data-name="Layer 1" id="Layer_1" viewBox="0 0 64 60" xmlns="http://www.w3.org/2000/svg"><defs><style>.cls-1{fill:#cad1d8;}.cls-2{fill:#9ba7af;}.cls-3{fill:#fff;}.cls-4{fill:#e2e5e7;}.cls-5{fill:#595a66;}.cls-6{fill:#3cb54a;}.cls-7{fill:#0e9347;}</style></defs><title/><path class="cls-1" d="M61,0H3A3,3,0,0,0,0,3V57a3,3,0,0,0,3,3H61a3,3,0,0,0,3-3V3A3,3,0,0,0,61,0Z"/><circle class="cls-2" cx="7" cy="4" r="1"/><circle class="cls-2" cx="11" cy="4" r="1"/><rect class="cls-3" height="50" rx="1" ry="1" width="60" x="2" y="8"/><rect class="cls-4" height="2" rx="1" ry="1" width="48" x="14" y="3"/><circle class="cls-2" cx="3" cy="4" r="1"/><rect class="cls-1" height="2" rx="1" ry="1" width="28" x="18" y="16"/><rect class="cls-1" height="2" rx="1" ry="1" width="18" x="23" y="20"/><path class="cls-1" d="M47.88,28.08a5,5,0,0,0-5.41,2.8A2,2,0,0,1,40.68,32H38.32a2,2,0,0,1-1.8-1.14,5,5,0,0,0-9,0A2,2,0,0,1,25.68,32H23.32a2,2,0,0,1-1.79-1.12,5,5,0,1,0,0,4.26A2,2,0,0,1,23.32,34h2.36a2,2,0,0,1,1.8,1.14,5,5,0,0,0,9,0A2,2,0,0,1,38.32,34h2.36a2,2,0,0,1,1.8,1.14A5,5,0,1,0,47.88,28.08Z"/><path class="cls-5" d="M32.23,32.94c0.79-.62.79-1.86-0.38-1.86a1.22,1.22,0,0,0-1,.58,0.54,0.54,0,1,1-.91-0.6A2,2,0,0,1,31.85,30c2,0,2.86,2.11,1.22,3.7a11,11,0,0,1-1.67,1.21c0.38,0,.84-0.05,1.22-0.05h1a0.56,0.56,0,0,1,0,1.11H30.26a0.51,0.51,0,0,1-.38-0.91C30.66,34.24,31.39,33.7,32.23,32.94Z"/><path class="cls-5" d="M47.21,31.08H45.74a0.54,0.54,0,0,1,0-1.08h2.64a0.57,0.57,0,0,1,.38,1l-1.43,1.34A1.7,1.7,0,0,1,49.21,34c0,1.06-.75,2-2.33,2a2,2,0,0,1-1.77-.91,0.56,0.56,0,1,1,.94-0.6,1.2,1.2,0,0,0,1,.44,0.9,0.9,0,0,0,1-.91c0-.9-1.1-0.76-1.69-0.7a0.56,0.56,0,0,1-.52-1Z"/><path class="cls-5" d="M16.86,31.37l-0.52.21A0.55,0.55,0,1,1,16,30.53l1.22-.45c0.4-.17.76,0,0.76,0.6v4.83c0,0.64-1.14.66-1.14,0V31.37Z"/><rect class="cls-4" height="6" rx="3" ry="3" width="20" x="22" y="45"/><rect class="cls-6" height="6" rx="3" ry="3" width="20" x="22" y="44"/><circle class="cls-7" cx="32" cy="47" r="1"/><circle class="cls-7" cx="36" cy="47" r="1"/><circle class="cls-7" cx="28" cy="47" r="1"/></svg>