<?xml version="1.0" ?><!DOCTYPE svg  PUBLIC '-//W3C//DTD SVG 1.1//EN'  'http://www.w3.org/Graphics/SVG/1.1/DTD/svg11.dtd'><svg enable-background="new 0 0 40 40" version="1.1" viewBox="0 0 40 40" xml:space="preserve" xmlns="http://www.w3.org/2000/svg" xmlns:xlink="http://www.w3.org/1999/xlink"><g id="Controls"><g id="D71_4_"/><g id="D61_4_"/><g id="D51_4_"/><g id="Dolby"/><g id="Stereo_4_"/><g id="CC_4_"/><g id="HD_4_"/><g id="SD_4_"/><g id="Pause_02"/><g id="Play_02"/><g id="Left_02"/><g id="Right_02"/><g id="Down_02"/><g id="Up_02"/><g id="Urgent_02"/><g id="Info_02"/><g id="Help_02"/><g id="OK_02"/><g id="Remove__02"/><g id="Minus_02"/><g id="Plus_02"/><g id="Pause_01"/><g id="Play_01"/><g id="Left_01"/><g id="Right_01"/><g id="Down_01"/><g id="Up_01"/><g id="Urgent_01"/><g id="Info_01"/><g id="Help_01"/><g id="OK_01"/><g id="Remove_01"/><g id="Minus_01"/><g id="Plus_01"/><g id="Chevron_Light_Down_2_"/><g id="Chevron_Light_Up_2_"/><g id="Chevron_Heavy_Down_1_"/><g id="Chevron_Heavy_Up_3_"/><g id="Chevron_Light_Right_2_"/><g id="Chevron_Light_Left_2_"/><g id="Chevron_Heavy_Right_2_"/><g id="Chevron_Heavy_Left_2_"/><g id="Random_2_"/><g id="Rotation_Lock_4_"/><g id="Replay_1_"/><g id="Rotation_3_"/><g id="Refresh_2_"><g><g id="Refresh"><g><path clip-rule="evenodd" d="M32,20L32,20c0-6.6-5.4-12-12-12c-2.7,0-5.3,0.9-7.3,2.5       l1.7,2.4C16,11.7,17.9,11,20,11c5,0,9,4,9,9l-3.8,0l5.4,7.5L36,20L32,20z M20,29c-5,0-9-4-9-9l0,0l4,0l-5.5-7.5L4,20h4       c0,6.6,5.4,12,12,12c2.7,0,5.2-0.9,7.2-2.4l-1.8-2.4C23.9,28.3,22,29,20,29z" fill="#1ABC9C" fill-rule="evenodd"/></g></g></g></g><g id="Power_3_"/><g id="Transfer_4_"/><g id="Retweet_2_"/><g id="Loop_2_"/><g id="Delete_3_"/><g id="Brighten_3_"/><g id="Dim_3_"/><g id="Screen_Fit_4_"/><g id="Screen_Fill_3_"/><g id="Down_03"/><g id="Up_03"/><g id="Right_03"/><g id="Left_03"/><g id="Bell_3_"/><g id="Bell_Mute_4_"/><g id="Playlist_3_"/><g id="Octave_2_"/><g id="Quaver_2_"/><g id="Earbuds_4_"/><g id="Mute_Mic_1_"/><g id="Mic_4_"/><g id="Volume_Up"/><g id="Volume_Down"/><g id="Volume_Mute_4_"/><g id="Volume_3_"/><g id="Maximize"/><g id="Fullscreen_Enter_2_"/><g id="Fullscreen_Exit_2_"/><g id="Eject_2_"/><g id="Step_Forward_2_"/><g id="Fast-forward_1_"/><g id="Forward_2_"/><g id="Stop_2_"/><g id="Pause_2_"/><g id="Play_2_"/><g id="Rewind_2_"/><g id="Fast-backward"/><g id="Step_Backward_2_"/><g id="Record_2_"/></g><g id="Lockup"/></svg>