<?xml version="1.0" ?><svg viewBox="0 0 24 24" xmlns="http://www.w3.org/2000/svg" xmlns:xlink="http://www.w3.org/1999/xlink"><defs><linearGradient gradientUnits="userSpaceOnUse" id="a" x1="-1.66987" x2="24.52953" y1="7.11425" y2="19.33123"><stop offset="0" stop-color="#fff" stop-opacity="0.1"/><stop offset="1" stop-color="#fff" stop-opacity="0"/></linearGradient></defs><title/><rect fill="#ffc400" height="10" rx="0.5" width="10" x="1" y="13"/><rect fill="#8bc34a" height="10" rx="0.5" width="10" x="13" y="13"/><rect fill="#2196f3" height="10" rx="0.5" width="10" x="1" y="1"/><path d="M22.51758,6.81055,17.18945,1.48242a.49982.49982,0,0,0-.707,0L11.1543,6.81055a.4998.4998,0,0,0,0,.707l5.32812,5.32812a.4998.4998,0,0,0,.707,0l5.32813-5.32812A.49982.49982,0,0,0,22.51758,6.81055Z" fill="#f44336"/><path d="M10.5,13h-9a.49971.49971,0,0,0-.5.5v9a.49971.49971,0,0,0,.5.5h9a.49971.49971,0,0,0,.5-.5v-9A.49971.49971,0,0,0,10.5,13Zm12,0h-9a.49971.49971,0,0,0-.5.5v9a.49971.49971,0,0,0,.5.5h9a.49971.49971,0,0,0,.5-.5v-9A.49971.49971,0,0,0,22.5,13ZM10.5,1h-9a.49971.49971,0,0,0-.5.5v9a.49971.49971,0,0,0,.5.5h9a.49971.49971,0,0,0,.5-.5v-9A.49971.49971,0,0,0,10.5,1Zm6.33594,11.99219a.49835.49835,0,0,0,.35351-.14649l5.32813-5.32812a.49982.49982,0,0,0,0-.707L17.18945,1.48242a.49982.49982,0,0,0-.707,0L11.1543,6.81055a.4998.4998,0,0,0,0,.707l5.32812,5.32812A.49839.49839,0,0,0,16.83594,12.99219Z" fill="url(#a)"/></svg>