<?xml version="1.0" ?><svg viewBox="0 0 512 512" xmlns="http://www.w3.org/2000/svg"><g id="Flat"><rect height="48" rx="23.99998" ry="23.99998" style="fill:#e44b4d" width="96" x="208" y="24"/><rect height="48" rx="23.99998" ry="23.99998" style="fill:#349966" width="96" x="208" y="128"/><rect height="48" rx="23.99998" ry="23.99998" style="fill:#59257f" width="96" x="208" y="232"/><rect height="48" rx="23.99998" ry="23.99998" style="fill:#396795" width="96" x="208" y="336"/><rect height="48" rx="23.99998" ry="23.99998" style="fill:#e88604" width="96" x="208" y="440"/><rect height="24" style="fill:#c4d4e0" width="16" x="248" y="88"/><rect height="24" style="fill:#c4d4e0" width="16" x="248" y="192"/><rect height="24" style="fill:#c4d4e0" width="16" x="248" y="296"/><rect height="24" style="fill:#c4d4e0" width="16" x="248" y="400"/><path d="M416,24H336V40h80a24.0275,24.0275,0,0,1,24,24V328a24.0275,24.0275,0,0,1-24,24H347.314l10.34327-10.34277-11.31446-11.31446-24,24a8.00122,8.00122,0,0,0,0,11.31446l24,24,11.31446-11.31446L347.314,368H416a40.04584,40.04584,0,0,0,40-40V64A40.04584,40.04584,0,0,0,416,24Z" style="fill:#c4d4e0"/><path d="M346.34277,181.65723l11.31446-11.31446L347.314,160H384a40.04584,40.04584,0,0,0,40-40V96a40.04584,40.04584,0,0,0-40-40H336V72h48a24.0275,24.0275,0,0,1,24,24v24a24.0275,24.0275,0,0,1-24,24H347.314l10.34327-10.34277-11.31446-11.31446-24,24a8.00122,8.00122,0,0,0,0,11.31446Z" style="fill:#c4d4e0"/><path d="M165.65723,226.34277l-11.31446,11.31446L164.686,248H128a40.04584,40.04584,0,0,0-40,40v40a40.04584,40.04584,0,0,0,40,40h48V352H128a24.0275,24.0275,0,0,1-24-24V288a24.0275,24.0275,0,0,1,24-24h36.686l-10.34327,10.34277,11.31446,11.31446,24-24a8.00122,8.00122,0,0,0,0-11.31446Z" style="fill:#c4d4e0"/><path d="M165.65723,122.34277l-11.31446,11.31446L164.686,144H96a40.04584,40.04584,0,0,0-40,40V432a40.04584,40.04584,0,0,0,40,40h80V456H96a24.0275,24.0275,0,0,1-24-24V184a24.0275,24.0275,0,0,1,24-24h68.686l-10.34327,10.34277,11.31446,11.31446,24-24a8.00122,8.00122,0,0,0,0-11.31446Z" style="fill:#c4d4e0"/></g></svg>